<svg width="466" height="367" xmlns="http://www.w3.org/2000/svg" xmlns:xlink="http://www.w3.org/1999/xlink"><svg width="167" height="62" viewBox="-1 -1 167 62" x="270" y="81" xmlns="http://www.w3.org/2000/svg"><g data-name="Layer 2"><g data-name="Layer 1"><path d="M149.58 40.59v.69c-.11.46-.52-.05-.51.68-.19-.11-.21-.29-.2-.52a.48.48 0 00-.11-.37l-.49.88c-.07-.12-.12-.24-.18-.34s-.22-.15-.32 0c-.39.47-.4.49-.66 0l-.25.41-.24-.43c-.17.32-.33.66-.51 1-.07.13-.12.42-.24.31s-.06-.41-.09-.61a.25.25 0 00-.09-.16s-.05 0-.08.06a.73.73 0 00-.06.41.54.54 0 01-.11.38L145 42c-.09.14-.14.36-.26.38s-.08 0-.09-.61c-.07-.21-.17-.27-.3-.24s-.32.64-.57.9h-.42c-.08-.13-.16-.3-.25-.44s-.08 0-.22-.15-.05.09 0 .13.15 0 .1-.19a.52.52 0 00-.14-.21s-.07.12 0 .27a2.57 2.57 0 01.11.84c-.12.26-.26.32-.41.13s-.11-.22-.17-.33h-.24l-.25.45-.24-.43-.25.42-.4-.92c-.06 0-.13 0-.14.21s0 .48-.11.6-.15 0-.24 0l-.25-.45c-.2.17 0 .74-.24.9h-.47c-.18-.28-.29-.69-.51-.85l-.19.36-.25-.4-.48.89h-.23l-.24-.43h-.48l-.35.66v.92l.18.59c-.16.38-.37.14-.57.22l-.25.45h-.94l-.25-.45h-1.89l-.25.43c-.25-.45-.25-.45-.74-.37l-.18.36-.26-.41h-.94l-.24.44H130l-.25-.44a.68.68 0 00-.11.37c-.06.56-.06.56-.38.49l-.16-.33h-.09c-.12.46-.43.26-.57.65-.08.22-.2.17-.31.2s-.13.17-.11.28 0 .16.08.16h1.65l.26.48h.71c.13.28.25.59.46.45l.19.37c.19.29.48-.17.64.33v.44l.23.49-.34.67h-.71l-.25.45-.24-.41-.35.65.36.7a1.71 1.71 0 01.45 0c.08 0 .12.16.12.1l-.56 1.3h-1.21l-.18.35c-.14.16-.3 0-.45.09s-.12.15-.18.23a1 1 0 00.19.22c.06.06.14.06.21.11a.38.38 0 01.05.16.46.46 0 01-.08.16h-1.41l-.27.49H126l-.27.48h-.92l-.25.42-.25-.4-.19.37s-.07.06-.1.06h-1.56l-.26-.43-.25.43h-3.54l-.25.46h-1.41l-.25-.44h-.5c0 .07-.06.13-.09.18-.22.37-.26.37-.49 0s-.27-.34-.49 0l-.09.18h-.72l-.25-.43h-.46l-.26.46h-.69l-.26.45h-.24l-.17-.32a.82.82 0 00-.79 0c-.14.15-.07.41-.09.63 0 .05 0 .14-.08.15l-.44.09a4.93 4.93 0 01-.54-.93l-.49.92-.24-.05-.17-.33a.48.48 0 00-.56 0l-.17.33s-.07.06-.1.06h-2.73c-.17-.09-.24-.63-.51-.44l-.25.44h-1.88l-.26.46h-.22l-.26-.44-.17.35a18.28 18.28 0 01-4.11 0l-.17-.32c-.16 0-.19.43-.36.38s-.26.28-.4.46h-.69l-.25-.45h-.23l-.25.44h-1c-.34-.61-.36-.61-.66-.06 0 0-.07.07-.11.07h-1.3c-.18.08-.25.63-.52.44l-.24-.42h-.23l-.25.45h-.47l-.25-.43L90 59l-.25-.4-.24.42h-.23c-.21-.16 0-.73-.24-.9l-.24.42-.25-.4-.45.87h-.5l-.24-.43h-.23l-.26.45H85l-.26.46h-.23c-.33-.58-.35-.59-.68 0h-.48l-.24-.38h-.22l-.26.44-.25-.55h-.71a6.87 6.87 0 01-.51.91c-.2.08-.3-.15-.42-.43-.53-.05-1.08 0-1.66 0l-.24-.4c-.25.09 0 .7-.24.85l-.25-.42-.25.49h-.24c-.33-.58-.35-.58-.66 0-.23.16-.46 0-.69.11l-.3-.48h-.7l-.24.43h-.47l-.25-.44h-.46l-.25.43h-1.19l-.19-.37c-.29-.17-.6 0-.91-.06s-.71 0-1.07 0h-.87c-.15-.16-.18-.48-.31-.36s0 .41-.09.61a.65.65 0 01-.09.19l-.26-.43h-.46l-.25.45h-.23l-.26-.48H67c-.33-.6-.36-.61-.67 0-.3.12-.61 0-1 .06l-.26.42-.24-.41-.23.33h-.47l-.25-.44h-.71a1.44 1.44 0 01-.18.33.39.39 0 01-.21.11s-.09 0-.1-.06c-.12-.58-.55-.23-.67-.85l-.26.44h-.93l-.26-.53h-1.4l-.25-.43-.25.4-.19-.38c-.3-.13-.62 0-.95-.06l-.26-.41h-.22l-.26.46h-.23l-.25-.46h-.7l-.25-.43c-.31.57-.31.56-.58.21v-.47l-.36-.67-.48.9h-.47a3.6 3.6 0 00-.5-.85c-.14.15-.08.41-.09.62s-.12.2-.19.23-.26-.06-.28-.49c0-.16 0-.33-.1-.37s-.13.15-.14.25a1.13 1.13 0 01-.11.6l-.26-.45h-.22l-.27-.48h-.46l-.17-.34c-.26-.22-.54 0-.8-.16l-.17-.35a2.24 2.24 0 00-.93 0c-.21 0-.37-.11-.51-.42 0-.08-.15 0-.22-.06s-.16-.25-.15-.52a.63.63 0 01.11-.38l.27.47a5.53 5.53 0 01.16-.81 1.38 1.38 0 01.33-.59c.13 0 .24 0 .31.23v.44l-.22.49c0 .16.11.21.19.22s.27-.13.27-.31v-1.36l.45-.87c0-.09-.08-.26-.12-.27h-.92c0-.09-.07-.15-.1-.2-.22-.36-.28-.38-.49 0-.07.13-.11.21-.17.14a.58.58 0 01-.07-.41 1.7 1.7 0 000-.22s-.06-.15-.09-.15l-1.66-.07c0-.08-.11-.16-.16-.27s-.21-.24-.17-.48.21-.12.32-.17a.4.4 0 00.08-.16.3.3 0 000-.16s-.05-.12-.09-.12h-1.43a1.67 1.67 0 01-.19.36.37.37 0 01-.21.1.09.09 0 01-.1-.06c-.13-.58-.55-.23-.66-.81-.2.1-.11.46-.15.62l-.34.71h-.49a5.17 5.17 0 00-.51-.91c-.13 0-.24 0-.31.23s0 .61 0 .91a.23.23 0 01-.08.16.06.06 0 01-.08 0c-.11-.28-.32-.43-.31-.9s-.22-.42-.23-.73a1 1 0 00-.13-.57h-.7l-.27.47h-.45c-.34.61-.36.61-.69 0l-.24.39h-.23l-.26-.46h-.23c-.2.16 0 .73-.24.9l-.27-.47h-1.17a.63.63 0 01-.12-.4c0-.34-.06-.47-.16-.5s-.23 0-.3.23a.87.87 0 000 .23h-.35a1.11 1.11 0 00-.13.58.87.87 0 01-.12.34h-.47c-.17-.17-.08-.54-.18-.8s-.36-.08-.54-.11a2.37 2.37 0 00-.46 0l-.25-.45h-.71a.3.3 0 00-.06.33q.08.18.21.12c.08 0 .15 0 .19.2s-.1.26-.25.26h-.32l-.22-.42-.74-.07-.35-.65v-.8.09c0 .01.14 0 .19-.12a.22.22 0 00-.05-.28h-.07a.54.54 0 00-.07.26.28.28 0 00-.19.26v.66a4 4 0 010 .86c-.1.25-.22.15-.33.14l-.34-.66v-.91c-.06-.08-.12-.22-.18-.24a1.09 1.09 0 00-.36 0 2 2 0 00-.41.75c0 .6 0 .61-.35.63l-.25-.46a1.38 1.38 0 00-.35 0c-.09 0-.16 0-.2-.17a.44.44 0 01.09-.33s.06-.11.09-.16c0-.27.08-.57-.13-.68l-.67 1.32h-.48l-.25-.45H26l-.29-.4H25l-.25-.44c-.21-.09-.32.13-.42.37-.14 0-.17-.23-.28-.36h-.71l-.24.41-.24-.43h-1.4l-.25-.46L21 47c-.12-.15-.09-.39-.11-.6s-.09-.17-.14-.25c-.15.46-.37.52-.62.36l-.29.48-.25-.41h-.47l-.28.52-.41-1h-.75l-.43-.85a4.51 4.51 0 00-.5.87H16l-.26-.47h-1.4l-.2-.39c-.39-.18-.82.05-1.24-.11l-.2-.38-.7-.06-.2-.4h-.45l-.35-.46c-.23.13 0 .74-.31.89h-.17l-.25.45-.27-.68a3.23 3.23 0 000-.44c0-.18-.11-.25-.15-.17s-.22.39-.4.4-.18.26-.28.41l-.24-.43H7.47l-.34-.68.32-.68h.46l.28.45h1.17c.06-.11.15-.25.23-.41a.77.77 0 00.09-.32c0-.17-.1-.21-.19-.17s-.08 0-.11 0l-.26.47h-.24l-.34-.66v-.46c.14-.42.35-.18.56-.25l.26.43.25-.4h.69l.26-.48h.23a1.46 1.46 0 01.12.37v.68c0 .22.09.3.12.29s.12-.2.11-.36a.65.65 0 01.06-.41s.06 0 .08-.06l.17.33c.14 0 .17-.22.26-.33l.23-.05.26.44c.08-.14.16-.3.24-.43s.08 0 .12 0v.69c.14.4.36.17.54.23a6.26 6.26 0 00.6-1.06c.08-.24 0-.61.17-.78h.26a4.57 4.57 0 00.15.77 1.08 1.08 0 00.32.56.61.61 0 00.1-.38c0-.35.08-.5.15-.41a.45.45 0 01.08.39c0 .17 0 .34.09.38s.11-.12.16-.19a1.63 1.63 0 00.11-.2h1.15c.08 0 .16-.28.15-.53a.54.54 0 00-.12-.38H16c-.14-.35-.42-.49-.38-1.07a2.28 2.28 0 01.4-.78c.18-.08.39.16.54-.22l-.19-.61a5.53 5.53 0 00.43-.92l-.3-.68c-.22.18 0 .76-.27.88l-.42-.81c-.06 0-.14 0-.15.2s0 .6 0 .89a1.74 1.74 0 00-.22 1.44l-.39-.7h-.7c-.2.19 0 .76-.26.93h-.22l-.27-.46h-.66a3.09 3.09 0 00-.3-.43c-.14-.12-.28.1-.31.45h-1.06L11 38.3l-.42.82c-.15.16-.29.12-.4-.16s.05-.48-.09-.61-.12 0-.14.44a.65.65 0 01-.12.4h-.45l-.24-.43-.25.44h-.46l-.26-.43-.2.4a2.74 2.74 0 01-1 0l-.2-.39-.24.38c-.24-.1 0-.7-.24-.86-.22.15 0 .74-.26.87l-.23-.41h-.47c-.09.14-.15.43-.25.37S5 38.74 5 38.48s.21-.42.34-.6.15 0 .23-.06l.26.44.25-.44h.87a.47.47 0 00.06.36c0 .1.1.08.14-.09a.25.25 0 000-.14.19.19 0 00-.13-.13 13.68 13.68 0 010-1.48v.09c0 .01.14 0 .19-.12A.23.23 0 007 36l-.07.06a.42.42 0 00-.07.26c0 .1-.09.07-.11.1s-.15.35-.2.45h-.26L6 36.46a.55.55 0 00-.11.39c0 .26 0 .49-.15.5H4.13l-.26.44a3.36 3.36 0 00-.18-.34c-.06-.06-.14-.05-.21-.1a2 2 0 01-.19-.22c.06-.08.11-.21.17-.23s.31 0 .45-.09.11-.21.09-.38h.35l.28.51.42-1 .52.44.23-.38h.73c.15-.17.11-.42.12-.65l.23-.48v-.53l.24-.4a.8.8 0 000-.22 1.82 1.82 0 00.33 0s.06-.06.08-.11a.28.28 0 000-.15.27.27 0 00-.08-.15c-.25-.12-.32 0-.37.42-.09 0-.17 0-.2-.16a3.37 3.37 0 010-1.14l.32-.13.24-.39c.15.29.29.56.42.83.06 0 .14 0 .15-.2v-1.33c.06-.19.12-.24.2-.25s.25.08.27.3a1 1 0 00.12.61h.46a.82.82 0 000-.9c-.06-.14-.11-.22-.07-.33s.12-.17.21-.14a.88.88 0 00.23 0h.12l.33-.65c-.12-.44-.34-.15-.51-.29l-.29.43c-.2 0-.43.3-.6-.18v-.44c.08-.24.19-.24.37-.23l.38-.92h.37l.38-.92a.34.34 0 01.38.19c.22.38.23.36.48 0v-.92l.34-.65c.35-.06.38 0 .35.7l-.18.34a3.14 3.14 0 000 1.06c0 .17.11.22.2.16 0 .38-.17.47-.23.73v1.36c.11.19.21.17.23-.06s0-.46.11-.61H12c.23 0 .27-.13.24-.72l-.24-.75h-.36a.77.77 0 010-.22c.07-.17.15-.33.23-.49v-1.83l.45-.87L12 24l-.26.44-.45-.86L11 24h-.91l-.26.45c-.12-.09-.13-.29-.14-.51a1.58 1.58 0 00-.11-.37 2 2 0 00-.12.34v.69a1.38 1.38 0 01-.12.34h-.7l-.25-.44-.39.78c-.06.07-.11 0-.16-.16a1.61 1.61 0 010-.22c0-.31-.06-.43-.19-.46s-.22.06-.29.3v.87c-.11.2-.11.2-.34-.22h-.23c-.22-.17-.06-.73-.26-.93-.19.38-.4.74-.57 1.14s-.28.2-.41.32a.44.44 0 00-.08.39H4.4l-.25.46h-.23l-.24-.44-.25.41-.18-.34c-.14-.07-.16.21-.26.32a1.55 1.55 0 01-.68.05h-.58c-.19 0-.47-.06-.69.07l-.17.33c-.21 0-.44.29-.62-.18.08-.23.19-.23.31-.22.17-.16.25-.48.4-.68-.06-.13-.09-.22-.12-.23h-.7a.89.89 0 010-.93H.6l.24-.46h.24c.19.29.06.92.33 1.12v.21c.08.51.08.51.27.51H2c.14-.27.25-.48.35-.7a.75.75 0 000-.22 7 7 0 00.79 0c.06 0 .14-.16.15-.26v-1.11c.08-.05.16 0 .19.15s.08.51.12.76c.23-.08.47.27.62-.23L4 24.19v-.67c.19-.06.2-.09.23-.46h.35l.25.45h.71a.74.74 0 00.12-.38c0-.55.06-.56.36-.49l.25.39c.32-.59.34-.59.67 0 0 0 .06 0 .08-.09a.39.39 0 00.06-.18c0-.51.1-.65.34-.63.09 0 .12-.18.09-.29a.4.4 0 00-.08-.15H7l-.26-.45c-.12.61-.54.26-.66.83a.09.09 0 01-.1.07.31.31 0 01-.21-.14 2.54 2.54 0 01-.18-.34l-.25.43h-.46l-.26.47h-.35v-.68c.08-.21.19-.21.3-.26s.18-.23.3-.39l.22.36c.12-.21.12-.21.15-1.14l.33-.65h.29c0 .11.12.29.2.45s.07 0 .11 0a.41.41 0 00.08.38c.08.09.14 0 .16-.38a1.12 1.12 0 00.41-.24c.21.13.28 0 .29-.07a.82.82 0 00-.11-.53c-.13-.11-.28 0-.37.21a.7.7 0 000 .21c.19 0 .24.3.18.22-.25-.22-.33-.22-.41-.22v-.69c-.15-.4-.36-.17-.56-.24l-.27.45h-.7l-.24-.42-.5.92h-.7l-.18.36c-.33.22-.69 0-1 .15l-.17.33a.48.48 0 01-.55 0 1.11 1.11 0 01-.09-.69l.34-.66H2l.26-.47h.23l.25.44h.47a.47.47 0 00.11-.31.63.63 0 01.07-.41s.07-.11.1-.1c.26.14.35-.58.61-.48.05 0 .12-.16.17-.24s0-.3 0-.45a.57.57 0 01.09-.16c.16-.15.34 0 .37.24s0 .46.13.62H6l.26.46a.48.48 0 00.08-.16c.09-.5 0-.74-.22-.75s-.23 0-.32 0a.89.89 0 01-.13-.64.39.39 0 01.06-.18c.07-.11.07-.11.32-.05l.17.33c.08 0 .08 0 .25-.34.25-.09.29-.13.49-.5h.7l.34-.51h.47c.11-.23.1-.42 0-.45s-.24 0-.34-.3L8.7 14s.07 0 .07.13v.83c0 .23.22.25.34.26l.49.9a1 1 0 00.12-.62c.16-.28.24-.74.53-.77s.29-.4.4-.7l-.17-.33v-.16c.1-.22.22-.43.33-.64h.45l.26-.42.18.36c.19 0 .24-.65.51-.29l.41-1h.54l.25-.45h.7l.25.42.44-.84c.25-.09.29-.12.49-.5H16c.24-.18.08-.75.27-.94a4.43 4.43 0 00.5.87c.09-.1.13-.41.26-.31s.05.4.08.61a.7.7 0 00.09.17c.21-.18.31-.63.54-.88H18c0 .18 0 .36.09.39a5.57 5.57 0 00.66.1.51.51 0 00.13-.12c.22-.42.44-.86.66-1.29h.6a.42.42 0 00.07.38c.09.08.14-.05.16-.38H21a5.52 5.52 0 01.5-.87c.13.15.09.39.1.62l-.26.47c.08.21.2.18.31.24s.18.25.29.42l.71-1.38h.48c.09-.14.13-.36.26-.38s.08 0 .08.62l.25.5v.9c.05.16.11.22.19.23a.25.25 0 00.27-.29c0-.46.17-.63.24-.93s-.08-.8.12-1.09h.71l.26.47h.22a1 1 0 01.11.65l-.22.49c0 .23-.08.55.14.63l.43-.85.49.91.42-.81.43-.33c-.09-.12-.14-.25-.21-.27s-.23 0-.35 0-.12-.15-.17-.23v-.9c.12-.26.25-.31.4-.11s.11.21.18.33l.25-.44h.23l.24.44.25-.42.42.83a.34.34 0 00.11.07c.28.11.28.11.28.5v.64c.09.26.21.25.34.24l.26-.45h.48l.32-.75a1.51 1.51 0 010-.31c0-.13.09-.31.13-.32h1.63l.25.42a3.16 3.16 0 01.29-.41c.14-.13.28.1.23.66 0 .15.05.09.07 0s0-.29-.1-.19a.69.69 0 00-.11.27s.06.14.14-.07a.48.48 0 01.42-.21l.26.45c.1-.54.43-.29.58-.68v-.46c.06-.09.12-.24.18-.24h1.33l.26.42.25-.41h.46l.25.45h.7l.25-.45h.46l.26.42.25-.36c.23-.15.46 0 .72-.09l.22-.37.24.39h.23l.25-.45.25.43.18-.37c.33-.23.68 0 1-.14l.17-.32h.08c.02 0 .11.22.18.35h1l.24-.42h2.12l.24-.47h.23l.25.47h.24L47 6.1c.07 0 .14-.1.21-.1h1.42A3.11 3.11 0 0049 6l.18-.35c.14 0 .17.23.27.35l.25-.4.24.42.25-.46h1.17c.07-.12.12-.24.18-.34s.06 0 .08 0l.17.32c.23.15.46 0 .72.09l.27-.44h.7l.24.41.25-.44h.23l.25-.44c.24.47.24.46.49.39l.18-.35a2.37 2.37 0 01.92 0h3.66l.23-.43h1.66l.24.41.17-.59h1.41l.25-.45h1.19c.06.12.11.23.17.34a.24.24 0 00.08.06l.17-.33c.27-.16.54-.06.81-.08h1.54c.24 0 .55.07.81-.07l.19-.36h.49c.13.09.2.6.46.42l.25-.45h1.41l.25-.45h.94l.26.45h.24l.17-.33s.07-.08.1-.08c.23 0 .47-.07.69.07l.18.33c.17 0 .23-.65.62-.16l.12.21h.2l.26-.46h3.29l.25-.43h.47l.25.4.19-.36s.07-.06.11-.06h2.5l.27-.44H84l.27-.47H85l.25.44h.23l.27-.47h.93l.2-.4a2.74 2.74 0 011 0l.19.36c.25.1.31.15.49.5l.26-.43H89l.25-.46h.23l.25.43.19-.42a.85.85 0 01.22-.09h1.25l.2.4s.07.06.11.06h1.56l.25.43h.23l.26-.4.25.42.24-.41c.12.22.21.45.4.45s.18.23.32.41h.45l.24-.41H98l.25.44h1.4l.27.47h.21l.25.43a.6.6 0 00.12-.4c0-.35.07-.49.17-.49h.89l.21-.39c.17.06.25.58.48.39l.26.45.48-.88h.72l.43.83.22.07a6.7 6.7 0 00.52-.92h.23l.26.46h.69l.25.43.18-.35c.15-.08.16.25.08.23a1.87 1.87 0 00.87.15 5.79 5.79 0 00.52-.92h1.65l.25-.46h.47l.26.46.24-.05.43-.85h.48c.19.18.29.62.5.86l.24-.43h.22l.25.42.21-.41h.47l.25-.4a1.94 1.94 0 01.69 0l.26.44.25-.44h.46l.26.47h.46c.11.22.11.22-.13.7l.63 1.11h.19c0-.11.13-.21.13-.33V1.14c0-.06.06-.11.08-.16l.26.45h.22l.24-.41h.71c.15.17.09.43.12.64s.1.23.15.17a.25.25 0 00.14-.23v-.45l.35-.68h.48l.24.44.25-.44a4.3 4.3 0 01.1 1.51c.07.4.26.28.39.38s0 .11.09.17V3c.23.36.24.36.48 0v-.92l.23-.5c0-.62 0-.59.34-.68.09 0 .17-.28.26-.44h.46l.25.44a.66.66 0 00.08-.38c0-.52 0-.52.27-.52h.33l.18.35c.19.26.48-.18.64.34v.44c.15.38.48.13.58.67h.46c.09.16.17.33.26.47s.08 0 .12 0v.65a.38.38 0 00.06.16s.06.09.08.07a.26.26 0 00.07-.15c.07-.49 0-.63-.21-.73v-.66c.11-.26.26-.34.4-.12s.22.38.4.37.16.26.15.52-.06.37-.23.38-.16 0-.21.16 0 .18.08.33c.22.48.17.79-.15.89-.08 0-.14.06-.2.23l.31.63a1.13 1.13 0 00.7.06c.12 0 .17-.22.18-.49s0-.38.33-.42l.49.9.25-.42c.06.13.12.24.18.35a1 1 0 00.21.09 1.66 1.66 0 00.33 0l.2-.39.26.41h1.17l.24-.42.25.44h.7a.69.69 0 00.12-.38c.06-.56.07-.57.38-.5l.18.35a.45.45 0 00.54 0c.09-.06.11-.21.09-.39h.11a4.6 4.6 0 00.25-.44c.15.29.28.56.43.83 0 0 .06 0 .1.08s.16 0 .21-.09c.15-.25.28-.53.42-.8.12.1.13.3.14.52a1.58 1.58 0 00.11.37h.24l.25.46c.32 0 .32 0 .35-.67l.3-.62c.06-.07.14 0 .16.16.08.6.08.61.34.68l.26-.44.24.43h.23l.25.45h.46l.25-.43h.49c.11.63.55.24.66.89l.26-.42h.23l.25.45.25-.44h.46l.27.47h1.4c.15.42.36.55.74.48-.22.27-.28.41-.35.42h-1.32l-.22-.53h-.22l-.26.46h-.47l-.24-.46-.26.46h-1.17l-.18.35c-.22.19-.46.06-.73.1l-.26.4c-.2.13-.43 0-.66.07a.34.34 0 00-.16.23c0 .16.1.23.18.22s.29.14.28.52a.71.71 0 000 .21.76.76 0 00.09.18h5l.26.46.25-.44h.7c.21.17 0 .77.26.87 0-.11.11-.22.16-.32.23-.18.46-.06.73-.1l.29-.41h.45c.13.19.22 0 .49 1.33.21-.17 0-.73.25-.9h.47c.12.22.23.44.34.66s0 .3 0 .44.11.25.23.05v-.92c.19-.43.42-.22.67-.14l.06.52.86 1.69c.24.07.33-.16.32-.64 0-.09.09-.2.15-.28s.08 0 .12 0h.24a1.32 1.32 0 01.18.22l.6 1.15.25-.45h.22l.25.43.27-.46h.45l.18-.36c.19.11.29.41.4.68s0 .3 0 .45l.42.81c0 .41.16.87-.1 1.18l-.24-.4-.18.36c-.13 0-.17-.23-.26-.33-.14.09-.21.36-.32.55a.22.22 0 000 .16c0 .06.05.15.08.15h.94l.25.46h.24c.16-.32.33-.63.45-.87.19-.05.3 0 .37.24V15l.34.65c.23-.13 0-.74.31-.89h.42l.33.66v.48a5.81 5.81 0 00.31.61c.15.2.29.13.4-.16V15c.06-.19.12-.23.17-.13s.11.22.18.34l.25-.44.32.66c0 .48-.36.08-.44.5v.49l.36.61s.09-.06.1-.24 0-.46.11-.6.12-.52.17-.79c0-.06.05-.14.08-.15s.08.08.08.14a2 2 0 00.41 1.21h.23c.22.43.44.87.68 1.32l.25-.44h.22l.25-.45a.52.52 0 01.11.38c0 .25 0 .5.16.51s.28.16.39.38.33 0 .39.35l-.22.46a1.64 1.64 0 01.26 1.13h.32c.19.52.19.52-.08 1.1 0 .42.23.23.35.33l.33.65v.69h-.11c-.02 0-.17-.31-.26-.47h-.45l-.28-.47h-.43a2.58 2.58 0 00-.3-.43c-.14-.13-.28.1-.3.45-.08-.05-.16 0-.19.14a2.44 2.44 0 000 .39c0 .15 0 .3.1.34s.12-.14.13-.23 0-.43 0-.64.17 0 .2.16a2.24 2.24 0 00.42 1.17l.17-.33.22-.08h.24a2.13 2.13 0 01.41.75v.45c.16.37.37.06.62.3l.19.34.23-.42h1.21l.09.18-.33.68h-.47l-.26.42h-1.15l-.27.47-.24-.43-.26.47h-.46l-.17.34s-.07.1-.1.1a3.61 3.61 0 01-.93-.05l-.19-.38-.25.4-.24-.41-.25.45h-1.17l-.25.44c-.25.19-.33-.33-.47-.37l-.36.59v.51c0 .05.05.15.08.15.32 0 .63.05.94.07l.27-.45.24.42.24-.42c.13.23.24.45.35.67a4.78 4.78 0 01-.07.89c0 .15 0 .09.07 0s0-.29-.1-.19a.69.69 0 00-.11.27s.06.14.14-.08.16-.17.19-.21.17-.31.24-.44h.79c.12.2.2.5.39.45s.19-.25.28-.38.12 0 .15.17a3.23 3.23 0 010 .44c.11.2.11.2.35-.23h.46s.06.08.08.14a.3.3 0 01-.06.32.83.83 0 00-.09.16c0 .12 0 .28.11.29a5.06 5.06 0 00.67 0l.27-.43.21.4h.44l.3-.47h1.36c.06 0 .13.16.16.28s0 .56-.1.6a1 1 0 01-.24 0l-.25-.45-.25.45c-.12 0-.25-.05-.33.22l.21.47c-.05.07-.11.22-.16.22a8.16 8.16 0 01-.86 0l-.25-.4c-.26.07 0 .7-.25.84l-.24-.43-.25.44h-.46l-.26-.42c-.07.14-.12.25-.18.36-.23.14-.46.05-.72.08l-.26.42-.24-.4h-.22a.68.68 0 00-.14.55c0 .14.08.35.12.35h1.42l.24.43.25-.4.18.35s.07.08.1.08h3.2s.07-.05.1-.08l.18-.35h.33c.24 0 .35.31.26.73 0 .16 0 .16-.31.19a.67.67 0 00-.09.14 3.24 3.24 0 00-.17.32h-1s-.06.09-.08.15 0 .28.1.29h.94s.06.11.1.19l-.33.68h-.74l-.23.44h-.9c-.05 0-.1.16-.14.25l.33.66h.23l.25.44.25-.41.18.35c.22.15.46 0 .72.08l.26-.42c.13-.08.28-.11.35.23v.9c-.16.4-.38.1-.62.32l-.2.35h-.7l-.26.46h-.22l-.25.41-.18-.35c-.15-.16-.31-.06-.46-.08a1 1 0 00-.35 0c-.16 0-.31-.07-.46.07l-.18.35h-.33c-.22 0-.23 0-.28-.51a.69.69 0 00-.11-.39l-.25.44h-.22c-.22.18 0 .78-.31.92h-.19l-.42-.81c-.15.06-.15.06-.17.62-.06.07-.12.21-.19.21h-1.32l-.25-.44h-.23l-.26.46h-.22l-.26.47h-.69l-.26.42-.2-.39a1.06 1.06 0 00-.32 0c-.18 0-.28-.18-.37-.42-.15 0-.17.24-.16.46a.55.55 0 01-.11.39l-.25-.44h-.23L153 41l-.25-.41a1.3 1.3 0 01-.1.18c-.21.36-.25.36-.48 0-.07-.1-.12-.19-.2-.22s-.24.08-.27.3 0 .3 0 .44a.48.48 0 01-.08.16h-.24c-.08-.15-.16-.31-.25-.45s-.08 0-.11 0v-1 .09c0 .01.13 0 .18-.12a.23.23 0 00-.05-.29l-.07.06a.54.54 0 00-.08.26.35.35 0 00-.2.25 1.06 1.06 0 000 .61c0 .16.11.21.2.16 0 .17 0 .33-.09.38s-.37.12-.47.49c0 0-.07 0-.09-.05l-.66-1.28h-.12v-.45c0-.37-.1-.52-.29-.47s-.15.13-.25.66c0 .15 0 .09.06 0s0-.29-.1-.19a.9.9 0 00-.1.27s.06.14.14-.08.27 0 .34.11.13.23.21.18zm-131.23 5a.36.36 0 00.14-.21c.05-.19 0-.29-.1-.19a.69.69 0 00-.1.27s.06.14.21-.48a.58.58 0 000 .19c.07.06.13 0 .18-.11a.24.24 0 000-.29s-.06 0-.08.06a4 4 0 00-.25.78zm32.15 9.3a2.08 2.08 0 00.35 0s.06-.08.08-.14 0-.26-.08-.3a.83.83 0 00-.35 0 1.59 1.59 0 000-.22c-.11-.23-.22-.43-.34-.65-.14 0-.18.37-.34.42s-.28.13-.25.71l.33.65c.08-.15.16-.31.25-.45s.07 0 .11 0a.42.42 0 00.08.38c.08.06.14-.07.16-.4zm-1.9-4.61c.09 0 .16 0 .19-.15a2.44 2.44 0 00.05-.39c0-.14 0-.3-.1-.33s-.12.13-.13.22a5.8 5.8 0 01-.15 1.06.64.64 0 00.14-.21c0-.2 0-.29-.1-.2a.76.76 0 00-.11.27s.06.14.21-.27zm-1.08 0h-.1a.47.47 0 00.06.36c.06.09.1.08.15-.09a.29.29 0 000-.15s-.05-.1-.18-.12c0-.18 0-.35-.09-.39a.68.68 0 01-.48-.51c-.05.1-.14.18-.14.27v.9c0 .06.05.11.09.17l.25-.44zm3.93 3.22v.65a.28.28 0 00.06.16s.06.08.07.07a.31.31 0 00.08-.15c.07-.49 0-.63-.21-.73v-1.11c0-.08-.09-.15-.14-.21s-.06.09-.08.15 0 .15 0 .22c-.09.43-.06.51-.27.5s-.31-.12-.42.18c.09.27.09.27.91.27zM9.84 31.83h-.23l-.25.45c-.12 0-.25-.06-.32.2a1.23 1.23 0 000 .43c.05.37.24.26.37.35a.22.22 0 01.08.16.33.33 0 01-.05.16c-.12.17-.32 0-.41.34v.9c.08.21.19.26.31.23a2.31 2.31 0 00.42-.79V33c.24-.64.24-.64.08-1.17zm.36-3.66v2l-.23.48c.08.25.2.22.32.22a2.13 2.13 0 00.38-.8c0-.36-.09-.78.12-1 .12 0 .25.07.33-.19a1.62 1.62 0 00-.34-.71zm42.43 27.4v-.94l-.24-.4v-.71a.56.56 0 00-.08-.39c-.06-.07-.1 0-.17.14a3.18 3.18 0 01-.25.41l.26.54v1.36c.25.3.25.3.48-.01zM12.68 25.83c-.1 0-.26-.11-.3.17s.11.32.17.48c-.05.49-.36.09-.44.48.05.09.11.24.16.24s.39.15.54-.22v-.46c.09-.38.38-.06.46-.48l-.34-.66zM7.4 36.9h.3a1.06 1.06 0 00.12-.34 1.49 1.49 0 000-.42.4.4 0 00-.11-.14.33.33 0 01-.07-.32c0-.15.11-.19.19-.14s.16 0 .2-.17a.24.24 0 00-.21-.3h-.1l-.35-.61c-.01.85-.04 1.54.03 2.44zM150.77 14l-.24-.41v-.93c-.23-.33-.24-.33-.49 0l.25.42v1.84c0 .07.09.14.13.19l.34-.61zM32.25 47.74a.6.6 0 00.08.16c.05.05.14 0 .15-.19V45.9c-.23-.33-.23-.33-.47 0v.45l.24.48zm-10.19-1.87l.18-.34a.89.89 0 00.08-.17c.05-.16.22-.23.15-.48s-.2-.13-.31-.11l-.34.66v.91c.23.35.23.35.46 0zm91.76 4.65l.32.68c.12 0 .25.1.32-.17a2.07 2.07 0 00-.08-1.21h-.25zM44.2 49.29c0-.06.13-.13.13-.2v-1.33a.41.41 0 00-.07-.17h-.08l-.57 1c.09.29.21.25.32.31s.17.25.27.39zm115.22-25.73l-.36.65c.15.23.24.68.43.67s.29-.07.29-.68zM13.87 36.44a1.42 1.42 0 00.12-.81.87.87 0 00-.12-.58c-.11 0-.24-.1-.32.17a2.18 2.18 0 00.09 1.22zm-.09-12.75a.53.53 0 00-.65-.11l-.32.63c.11.27.25.32.39.16s.14-.37.26-.38.22.01.32-.3zM13 13.14a3.23 3.23 0 000-.44c0-.17-.1-.24-.15-.17s-.14.36-.26.38a.31.31 0 00-.3.24 3.23 3.23 0 000 .44c0 .17.1.24.15.17s.14-.37.26-.38a.29.29 0 00.3-.24zm144.31 8.54h-.18c-.04 0-.15 0-.19.15a.3.3 0 00.07.32c.15.18.09.52.16.77s.11.2.16 0a4.14 4.14 0 00.02-1.24zm-.46 2.06c.2.21.27.6.49.73l.3-.24c-.19-.21-.26-.6-.49-.73zm4.55 12.91c-.16-.28-.32-.32-.48 0 0 .06 0 .11.08.16s.05.12.08.16.11.4.24.28.1-.38.12-.6zM14.7 24.68a1.61 1.61 0 010 .22.45.45 0 00.08.38c.05.07.1 0 .16-.14s.17-.29.25-.44c-.19-.36-.33-.36-.49-.02zm-9.83-.24a.92.92 0 000 .92 1 1 0 00.08-.14 1.19 1.19 0 00.05-.16c.06-.16.21-.22.15-.47s-.15-.12-.28-.15zm27.84 23.32c.08.15.17.28.24.44s.11.21.17.15.06-.4.07-.6c-.19-.34-.31-.34-.48.01zM10.91 33c-.07-.2-.18-.25-.3-.23s-.31-.07-.41.23c.07.2.18.24.3.23s.31.05.41-.23zm149.23 3.47l-.08.13a1.09 1.09 0 00-.08.15c-.06.16-.2.24-.16.47s.2.13.3.16a.87.87 0 00.02-.93zm-5.07-3.86s.05.14.08.15a.45.45 0 00.23 0s.06-.08.08-.14a.26.26 0 000-.15.2.2 0 00-.39 0 .81.81 0 000 .12zM16.6 40.13h.11a.3.3 0 00.09-.29.4.4 0 00-.08-.16h-.12a.23.23 0 00-.2.3c.04.15.11.2.2.15zm1.07.46a.89.89 0 000-.92.89.89 0 000 .92zm.91-.07h.08a.84.84 0 000-.76.06.06 0 00-.08 0 .87.87 0 000 .76zm-5.65 3.76a.89.89 0 000-.92.89.89 0 000 .92zM117.62 52c0 .06 0 .14.08.15a.36.36 0 00.23 0L118 52a.38.38 0 000-.15c0-.24-.31-.25-.39 0a.37.37 0 00.01.15zm-63.81 2.89h-.11a.4.4 0 00-.08.16.28.28 0 00.09.29h.11c.04 0 .15 0 .2-.16a.23.23 0 00-.21-.29zm50.73 1.61c-.15-.33-.31-.33-.47 0 .16.33.32.33.47 0zm-89.8-28.67a.81.81 0 000 .16c.08.23.34.22.39 0a.29.29 0 000-.16.2.2 0 00-.39 0zm145.75-3.62c.15.34.31.34.47 0-.16-.33-.32-.33-.47 0zm-58 32.45c.05.05.11 0 .15-.16s0-.11-.07-.15-.11 0-.16.16.05.09.08.15zM53 54.81s.11 0 .15-.16 0-.11-.07-.14-.11 0-.16.15a.76.76 0 00.08.15zm60.39-.81c0 .05-.08.13-.07.15s.1.22.15.16a.56.56 0 00.08-.15c-.05-.16-.1-.16-.16-.16zm-60 .23s.07.16.08.15a.32.32 0 00.08-.3c0-.06-.07-.16-.08-.15a.34.34 0 00-.09.34zm2.33-.54a1.19 1.19 0 00.08.16c.05.06.11 0 .16-.16a.56.56 0 00-.08-.15c-.06-.02-.11.04-.17.19zm-1.34-.61a.76.76 0 00-.08.15c.05.16.11.22.16.15s.08-.12.07-.14-.11-.17-.16-.12zm-.63 0c-.06 0-.11 0-.16.16a.41.41 0 00.08.14c.05.07.11 0 .15-.15s-.06-.06-.08-.11zm60.17-.54s.06-.09.08-.15a.32.32 0 00-.08-.3s-.06.09-.08.15a.33.33 0 00.07.34zm-82.3-5.92c0 .05-.08.13-.07.15s.1.22.15.16a.56.56 0 00.08-.15c-.06-.12-.11-.17-.17-.12zm.2-2.23a.31.31 0 00.08.3s.06-.09.08-.15a.3.3 0 00-.08-.29s-.06.13-.09.18zm-14.19-5.57a.76.76 0 00-.08.15c.05.16.11.22.16.16s.08-.13.07-.15-.1-.21-.15-.16zm140-1.23s.05.11.08.15.11 0 .16-.15a.56.56 0 00-.08-.15c-.04-.06-.1 0-.15.15zm-144-.15c-.06 0-.11 0-.16.16a.75.75 0 00.08.14c.05.06.11 0 .15-.15s0-.1-.02-.15zm-3.4-6a.76.76 0 00-.08.15c.05.16.11.22.16.16s.08-.13.07-.15-.05-.21-.1-.16zm5.21-6.15c.06.05.11 0 .16-.16a.41.41 0 00-.08-.14c-.05-.07-.11 0-.15.15s.1.1.12.15zm132.8-3.69s.11 0 .15-.16 0-.11-.07-.14-.11 0-.16.15a.76.76 0 00.08.15zM6.84 17.22a1.16 1.16 0 00-.07-.15.27.27 0 00-.08.3c0 .06.06.16.07.15a.32.32 0 00.08-.3zM146.34 13s-.08.13-.07.15.1.22.15.16a.56.56 0 00.08-.15c-.05-.16-.1-.22-.16-.16z" fill="#ef9ec3"/><path d="M43.24 41.36a7.16 7.16 0 01-5.12 1.88 7.11 7.11 0 01-5.76-2.5c-2.2-2.5-2.16-6.8-2.16-12.63s0-10.21 2.16-12.71a7.08 7.08 0 015.76-2.5 7 7 0 015.16 1.92 8.9 8.9 0 012.38 6.25H41a5.64 5.64 0 00-.71-2.88 2.29 2.29 0 00-2.16-1.08 2.39 2.39 0 00-2.21 1.12c-.88 1.42-1 4.42-1 9.84s.16 8.42 1 9.83a2.38 2.38 0 002.2 1.1 2.35 2.35 0 002.2-1.09A5.78 5.78 0 0041 35h4.7a8.87 8.87 0 01-2.46 6.36zM59 40.9a5.87 5.87 0 01-5.21 2.34 5.86 5.86 0 01-5.2-2.34c-1.38-1.91-1.55-5.29-1.55-9s.17-7.08 1.55-9 3.08-2.29 5.2-2.29 3.92.5 5.21 2.29 1.55 5.29 1.55 9-.14 7.1-1.55 9zm-3.5-15.46a2.05 2.05 0 00-3.41 0c-.59 1-.63 3.21-.63 6.46s0 5.5.63 6.5a2.09 2.09 0 003.41 0c.59-1 .63-3.25.63-6.5s-.01-5.46-.6-6.46zM80.24 42.9V27.11c0-1.71-1-2.54-2.21-2.54s-2.16.83-2.16 2.54V42.9h-4.42V27.11c0-1.71-1-2.54-2.17-2.54s-2.16.83-2.16 2.54V42.9H62.7v-22H67v1.63a5.17 5.17 0 011.46-1.38 4.41 4.41 0 012.21-.58 5.22 5.22 0 014.29 2.25 8.23 8.23 0 012-1.67 5.42 5.42 0 012.33-.58 4.83 4.83 0 014.17 1.71c.87 1 1.29 2.21 1.29 4.75V42.9zm18.88-1.37a4.56 4.56 0 01-3.88 1.71 4.28 4.28 0 01-2.2-.59 4.46 4.46 0 01-1.3-1.16v9.12h-4.41V20.94h4.25v1.63A5.07 5.07 0 0193 21.19a4.37 4.37 0 012.2-.58 4.55 4.55 0 013.88 1.71c1.46 1.79 1.54 4.83 1.54 9.58s-.04 7.84-1.5 9.63zm-3.5-16.09a2 2 0 00-1.62-.91 2.17 2.17 0 00-1.5.58 2.78 2.78 0 00-.71 2.08v9.46a2.8 2.8 0 00.71 2.09 2.18 2.18 0 001.5.54 1.93 1.93 0 001.67-.88c.58-1 .62-3.25.62-6.5s-.09-5.46-.67-6.46zm15.25-.54a3.54 3.54 0 00-3.67 3.79V42.9h-4.41v-22H107v2.34a6.2 6.2 0 012-1.71 6.49 6.49 0 013.42-.92v4.29zm10.75 18V41a5.67 5.67 0 01-1.33 1.46 4.13 4.13 0 01-2.5.75 4.92 4.92 0 01-4.13-1.84 7.64 7.64 0 01-1.33-4.91 6.4 6.4 0 012-4.92c1.08-1 2.5-1.5 5-1.5h2V27c0-1.63-.75-2.55-2.12-2.55a1.82 1.82 0 00-1.46.63 2.79 2.79 0 00-.67 2h-4.38a6.39 6.39 0 011.88-4.75 6.81 6.81 0 014.62-1.79 6.35 6.35 0 014.67 1.62 6.92 6.92 0 011.92 5.17V42.9zm-.25-9.71h-1.46a3 3 0 00-2.29.67 3.68 3.68 0 00-.87 2.46c0 2 .79 3 2.29 3 1.33 0 2.33-1.12 2.33-2.92zm15.17-8.29a3.53 3.53 0 00-3.67 3.79V42.9h-4.42v-22h4.25v2.34a6.35 6.35 0 011.92-1.75 6.49 6.49 0 013.42-.92v4.33z" fill="#fff"/></g></g></svg><svg width="167" height="62" viewBox="-1 -1 167 62" x="270" y="143" xmlns="http://www.w3.org/2000/svg"><g data-name="Layer 2"><g data-name="Layer 1"><path d="M149.58 40.59v.69c-.11.46-.52-.05-.51.68-.19-.11-.21-.29-.2-.52a.48.48 0 00-.11-.37l-.49.88c-.07-.12-.12-.24-.18-.34s-.22-.15-.32 0c-.39.47-.4.49-.66 0l-.25.41-.24-.43c-.17.32-.33.66-.51 1-.07.13-.12.42-.24.31s-.06-.41-.09-.61a.25.25 0 00-.09-.16s-.05 0-.08.06a.73.73 0 00-.06.41.54.54 0 01-.11.38L145 42c-.09.14-.14.36-.26.38s-.08 0-.09-.61c-.07-.21-.17-.27-.3-.24s-.32.64-.57.9h-.42c-.08-.13-.16-.3-.25-.44s-.08 0-.22-.15-.05.09 0 .13.15 0 .1-.19a.52.52 0 00-.14-.21s-.07.12 0 .27a2.57 2.57 0 01.11.84c-.12.26-.26.32-.41.13s-.11-.22-.17-.33h-.24l-.25.45-.24-.43-.25.42-.4-.92c-.06 0-.13 0-.14.21s0 .48-.11.6-.15 0-.24 0l-.25-.45c-.2.17 0 .74-.24.9h-.47c-.18-.28-.29-.69-.51-.85l-.19.36-.25-.4-.48.89h-.23l-.24-.43h-.48l-.35.66v.92l.18.59c-.16.38-.37.14-.57.22l-.25.45h-.94l-.25-.45h-1.89l-.25.43c-.25-.45-.25-.45-.74-.37l-.18.36-.26-.41h-.94l-.24.44H130l-.25-.44a.68.68 0 00-.11.37c-.06.56-.06.56-.38.49l-.16-.33h-.09c-.12.46-.43.26-.57.65-.08.22-.2.17-.31.2s-.13.17-.11.28 0 .16.08.16h1.65l.26.48h.71c.13.28.25.59.46.45l.19.37c.19.29.48-.17.64.33v.44l.23.49-.34.67h-.71l-.25.45-.24-.41-.35.65.36.7a1.71 1.71 0 01.45 0c.08 0 .12.16.12.1l-.56 1.3h-1.21l-.18.35c-.14.16-.3 0-.45.09s-.12.15-.18.23a1 1 0 00.19.22c.06.06.14.06.21.11a.38.38 0 01.05.16.46.46 0 01-.08.16h-1.41l-.27.49H126l-.27.48h-.92l-.25.42-.25-.4-.19.37s-.07.06-.1.06h-1.56l-.26-.43-.25.43h-3.54l-.25.46h-1.41l-.25-.44h-.5c0 .07-.06.13-.09.18-.22.37-.26.37-.49 0s-.27-.34-.49 0l-.09.18h-.72l-.25-.43h-.46l-.26.46h-.69l-.26.45h-.24l-.17-.32a.82.82 0 00-.79 0c-.14.15-.07.41-.09.63 0 .05 0 .14-.08.15l-.44.09a4.93 4.93 0 01-.54-.93l-.49.92-.24-.05-.17-.33a.48.48 0 00-.56 0l-.17.33s-.07.06-.1.06h-2.73c-.17-.09-.24-.63-.51-.44l-.25.44h-1.88l-.26.46h-.22l-.26-.44-.17.35a18.28 18.28 0 01-4.11 0l-.17-.32c-.16 0-.19.43-.36.38s-.26.28-.4.46h-.69l-.25-.45h-.23l-.25.44h-1c-.34-.61-.36-.61-.66-.06 0 0-.07.07-.11.07h-1.3c-.18.08-.25.63-.52.44l-.24-.42h-.23l-.25.45h-.47l-.25-.43L90 59l-.25-.4-.24.42h-.23c-.21-.16 0-.73-.24-.9l-.24.42-.25-.4-.45.87h-.5l-.24-.43h-.23l-.26.45H85l-.26.46h-.23c-.33-.58-.35-.59-.68 0h-.48l-.24-.38h-.22l-.26.44-.25-.55h-.71a6.87 6.87 0 01-.51.91c-.2.08-.3-.15-.42-.43-.53-.05-1.08 0-1.66 0l-.24-.4c-.25.09 0 .7-.24.85l-.25-.42-.25.49h-.24c-.33-.58-.35-.58-.66 0-.23.16-.46 0-.69.11l-.3-.48h-.7l-.24.43h-.47l-.25-.44h-.46l-.25.43h-1.19l-.19-.37c-.29-.17-.6 0-.91-.06s-.71 0-1.07 0h-.87c-.15-.16-.18-.48-.31-.36s0 .41-.09.61a.65.65 0 01-.09.19l-.26-.43h-.46l-.25.45h-.23l-.26-.48H67c-.33-.6-.36-.61-.67 0-.3.12-.61 0-1 .06l-.26.42-.24-.41-.23.33h-.47l-.25-.44h-.71a1.44 1.44 0 01-.18.33.39.39 0 01-.21.11s-.09 0-.1-.06c-.12-.58-.55-.23-.67-.85l-.26.44h-.93l-.26-.53h-1.4l-.25-.43-.25.4-.19-.38c-.3-.13-.62 0-.95-.06l-.26-.41h-.22l-.26.46h-.23l-.25-.46h-.7l-.25-.43c-.31.57-.31.56-.58.21v-.47l-.36-.67-.48.9h-.47a3.6 3.6 0 00-.5-.85c-.14.15-.08.41-.09.62s-.12.2-.19.23-.26-.06-.28-.49c0-.16 0-.33-.1-.37s-.13.15-.14.25a1.13 1.13 0 01-.11.6l-.26-.45h-.22l-.27-.48h-.46l-.17-.34c-.26-.22-.54 0-.8-.16l-.17-.35a2.24 2.24 0 00-.93 0c-.21 0-.37-.11-.51-.42 0-.08-.15 0-.22-.06s-.16-.25-.15-.52a.63.63 0 01.11-.38l.27.47a5.53 5.53 0 01.16-.81 1.38 1.38 0 01.33-.59c.13 0 .24 0 .31.23v.44l-.22.49c0 .16.11.21.19.22s.27-.13.27-.31v-1.36l.45-.87c0-.09-.08-.26-.12-.27h-.92c0-.09-.07-.15-.1-.2-.22-.36-.28-.38-.49 0-.07.13-.11.21-.17.14a.58.58 0 01-.07-.41 1.7 1.7 0 000-.22s-.06-.15-.09-.15l-1.66-.07c0-.08-.11-.16-.16-.27s-.21-.24-.17-.48.21-.12.32-.17a.4.4 0 00.08-.16.3.3 0 000-.16s-.05-.12-.09-.12h-1.43a1.67 1.67 0 01-.19.36.37.37 0 01-.21.1.09.09 0 01-.1-.06c-.13-.58-.55-.23-.66-.81-.2.1-.11.46-.15.62l-.34.71h-.49a5.17 5.17 0 00-.51-.91c-.13 0-.24 0-.31.23s0 .61 0 .91a.23.23 0 01-.08.16.06.06 0 01-.08 0c-.11-.28-.32-.43-.31-.9s-.22-.42-.23-.73a1 1 0 00-.13-.57h-.7l-.27.47h-.45c-.34.61-.36.61-.69 0l-.24.39h-.23l-.26-.46h-.23c-.2.16 0 .73-.24.9l-.27-.47h-1.17a.63.63 0 01-.12-.4c0-.34-.06-.47-.16-.5s-.23 0-.3.23a.87.87 0 000 .23h-.35a1.11 1.11 0 00-.13.58.87.87 0 01-.12.34h-.47c-.17-.17-.08-.54-.18-.8s-.36-.08-.54-.11a2.37 2.37 0 00-.46 0l-.25-.45h-.71a.3.3 0 00-.06.33q.08.18.21.12c.08 0 .15 0 .19.2s-.1.26-.25.26h-.32l-.22-.42-.74-.07-.35-.65v-.8.09c0 .01.14 0 .19-.12a.22.22 0 00-.05-.28h-.07a.54.54 0 00-.07.26.28.28 0 00-.19.26v.66a4 4 0 010 .86c-.1.25-.22.15-.33.14l-.34-.66v-.91c-.06-.08-.12-.22-.18-.24a1.09 1.09 0 00-.36 0 2 2 0 00-.41.75c0 .6 0 .61-.35.63l-.25-.46a1.38 1.38 0 00-.35 0c-.09 0-.16 0-.2-.17a.44.44 0 01.09-.33s.06-.11.09-.16c0-.27.08-.57-.13-.68l-.67 1.32h-.48l-.25-.45H26l-.29-.4H25l-.25-.44c-.21-.09-.32.13-.42.37-.14 0-.17-.23-.28-.36h-.71l-.24.41-.24-.43h-1.4l-.25-.46L21 47c-.12-.15-.09-.39-.11-.6s-.09-.17-.14-.25c-.15.46-.37.52-.62.36l-.29.48-.25-.41h-.47l-.28.52-.41-1h-.75l-.43-.85a4.51 4.51 0 00-.5.87H16l-.26-.47h-1.4l-.2-.39c-.39-.18-.82.05-1.24-.11l-.2-.38-.7-.06-.2-.4h-.45l-.35-.46c-.23.13 0 .74-.31.89h-.17l-.25.45-.27-.68a3.23 3.23 0 000-.44c0-.18-.11-.25-.15-.17s-.22.39-.4.4-.18.26-.28.41l-.24-.43H7.47l-.34-.68.32-.68h.46l.28.45h1.17c.06-.11.15-.25.23-.41a.77.77 0 00.09-.32c0-.17-.1-.21-.19-.17s-.08 0-.11 0l-.26.47h-.24l-.34-.66v-.46c.14-.42.35-.18.56-.25l.26.43.25-.4h.69l.26-.48h.23a1.46 1.46 0 01.12.37v.68c0 .22.09.3.12.29s.12-.2.11-.36a.65.65 0 01.06-.41s.06 0 .08-.06l.17.33c.14 0 .17-.22.26-.33l.23-.05.26.44c.08-.14.16-.3.24-.43s.08 0 .12 0v.69c.14.4.36.17.54.23a6.26 6.26 0 00.6-1.06c.08-.24 0-.61.17-.78h.26a4.57 4.57 0 00.15.77 1.08 1.08 0 00.32.56.61.61 0 00.1-.38c0-.35.08-.5.15-.41a.45.45 0 01.08.39c0 .17 0 .34.09.38s.11-.12.16-.19a1.63 1.63 0 00.11-.2h1.15c.08 0 .16-.28.15-.53a.54.54 0 00-.12-.38H16c-.14-.35-.42-.49-.38-1.07a2.28 2.28 0 01.4-.78c.18-.08.39.16.54-.22l-.19-.61a5.53 5.53 0 00.43-.92l-.3-.68c-.22.18 0 .76-.27.88l-.42-.81c-.06 0-.14 0-.15.2s0 .6 0 .89a1.74 1.74 0 00-.22 1.44l-.39-.7h-.7c-.2.19 0 .76-.26.93h-.22l-.27-.46h-.66a3.09 3.09 0 00-.3-.43c-.14-.12-.28.1-.31.45h-1.06L11 38.3l-.42.82c-.15.16-.29.12-.4-.16s.05-.48-.09-.61-.12 0-.14.44a.65.65 0 01-.12.4h-.45l-.24-.43-.25.44h-.46l-.26-.43-.2.4a2.74 2.74 0 01-1 0l-.2-.39-.24.38c-.24-.1 0-.7-.24-.86-.22.15 0 .74-.26.87l-.23-.41h-.47c-.09.14-.15.43-.25.37S5 38.74 5 38.48s.21-.42.34-.6.15 0 .23-.06l.26.44.25-.44h.87a.47.47 0 00.06.36c0 .1.1.08.14-.09a.25.25 0 000-.14.19.19 0 00-.13-.13 13.68 13.68 0 010-1.48v.09c0 .01.14 0 .19-.12A.23.23 0 007 36l-.07.06a.42.42 0 00-.07.26c0 .1-.09.07-.11.1s-.15.35-.2.45h-.26L6 36.46a.55.55 0 00-.11.39c0 .26 0 .49-.15.5H4.13l-.26.44a3.36 3.36 0 00-.18-.34c-.06-.06-.14-.05-.21-.1a2 2 0 01-.19-.22c.06-.08.11-.21.17-.23s.31 0 .45-.09.11-.21.09-.38h.35l.28.51.42-1 .52.44.23-.38h.73c.15-.17.11-.42.12-.65l.23-.48v-.53l.24-.4a.8.8 0 000-.22 1.82 1.82 0 00.33 0s.06-.06.08-.11a.28.28 0 000-.15.27.27 0 00-.08-.15c-.25-.12-.32 0-.37.42-.09 0-.17 0-.2-.16a3.37 3.37 0 010-1.14l.32-.13.24-.39c.15.29.29.56.42.83.06 0 .14 0 .15-.2v-1.33c.06-.19.12-.24.2-.25s.25.08.27.3a1 1 0 00.12.61h.46a.82.82 0 000-.9c-.06-.14-.11-.22-.07-.33s.12-.17.21-.14a.88.88 0 00.23 0h.12l.33-.65c-.12-.44-.34-.15-.51-.29l-.29.43c-.2 0-.43.3-.6-.18v-.44c.08-.24.19-.24.37-.23l.38-.92h.37l.38-.92a.34.34 0 01.38.19c.22.38.23.36.48 0v-.92l.34-.65c.35-.06.38 0 .35.7l-.18.34a3.14 3.14 0 000 1.06c0 .17.11.22.2.16 0 .38-.17.47-.23.73v1.36c.11.19.21.17.23-.06s0-.46.11-.61H12c.23 0 .27-.13.24-.72l-.24-.75h-.36a.77.77 0 010-.22c.07-.17.15-.33.23-.49v-1.83l.45-.87L12 24l-.26.44-.45-.86L11 24h-.91l-.26.45c-.12-.09-.13-.29-.14-.51a1.58 1.58 0 00-.11-.37 2 2 0 00-.12.34v.69a1.38 1.38 0 01-.12.34h-.7l-.25-.44-.39.78c-.06.07-.11 0-.16-.16a1.61 1.61 0 010-.22c0-.31-.06-.43-.19-.46s-.22.06-.29.3v.87c-.11.2-.11.2-.34-.22h-.23c-.22-.17-.06-.73-.26-.93-.19.38-.4.74-.57 1.14s-.28.2-.41.32a.44.44 0 00-.08.39H4.4l-.25.46h-.23l-.24-.44-.25.41-.18-.34c-.14-.07-.16.21-.26.32a1.55 1.55 0 01-.68.05h-.58c-.19 0-.47-.06-.69.07l-.17.33c-.21 0-.44.29-.62-.18.08-.23.19-.23.31-.22.17-.16.25-.48.4-.68-.06-.13-.09-.22-.12-.23h-.7a.89.89 0 010-.93H.6l.24-.46h.24c.19.29.06.92.33 1.12v.21c.08.51.08.51.27.51H2c.14-.27.25-.48.35-.7a.75.75 0 000-.22 7 7 0 00.79 0c.06 0 .14-.16.15-.26v-1.11c.08-.05.16 0 .19.15s.08.51.12.76c.23-.08.47.27.62-.23L4 24.19v-.67c.19-.06.2-.09.23-.46h.35l.25.45h.71a.74.74 0 00.12-.38c0-.55.06-.56.36-.49l.25.39c.32-.59.34-.59.67 0 0 0 .06 0 .08-.09a.39.39 0 00.06-.18c0-.51.1-.65.34-.63.09 0 .12-.18.09-.29a.4.4 0 00-.08-.15H7l-.26-.45c-.12.61-.54.26-.66.83a.09.09 0 01-.1.07.31.31 0 01-.21-.14 2.54 2.54 0 01-.18-.34l-.25.43h-.46l-.26.47h-.35v-.68c.08-.21.19-.21.3-.26s.18-.23.3-.39l.22.36c.12-.21.12-.21.15-1.14l.33-.65h.29c0 .11.12.29.2.45s.07 0 .11 0a.41.41 0 00.08.38c.08.09.14 0 .16-.38a1.12 1.12 0 00.41-.24c.21.13.28 0 .29-.07a.82.82 0 00-.11-.53c-.13-.11-.28 0-.37.21a.7.7 0 000 .21c.19 0 .24.3.18.22-.25-.22-.33-.22-.41-.22v-.69c-.15-.4-.36-.17-.56-.24l-.27.45h-.7l-.24-.42-.5.92h-.7l-.18.36c-.33.22-.69 0-1 .15l-.17.33a.48.48 0 01-.55 0 1.11 1.11 0 01-.09-.69l.34-.66H2l.26-.47h.23l.25.44h.47a.47.47 0 00.11-.31.63.63 0 01.07-.41s.07-.11.1-.1c.26.14.35-.58.61-.48.05 0 .12-.16.17-.24s0-.3 0-.45a.57.57 0 01.09-.16c.16-.15.34 0 .37.24s0 .46.13.62H6l.26.46a.48.48 0 00.08-.16c.09-.5 0-.74-.22-.75s-.23 0-.32 0a.89.89 0 01-.13-.64.39.39 0 01.06-.18c.07-.11.07-.11.32-.05l.17.33c.08 0 .08 0 .25-.34.25-.09.29-.13.49-.5h.7l.34-.51h.47c.11-.23.1-.42 0-.45s-.24 0-.34-.3L8.7 14s.07 0 .07.13v.83c0 .23.22.25.34.26l.49.9a1 1 0 00.12-.62c.16-.28.24-.74.53-.77s.29-.4.4-.7l-.17-.33v-.16c.1-.22.22-.43.33-.64h.45l.26-.42.18.36c.19 0 .24-.65.51-.29l.41-1h.54l.25-.45h.7l.25.42.44-.84c.25-.09.29-.12.49-.5H16c.24-.18.08-.75.27-.94a4.43 4.43 0 00.5.87c.09-.1.13-.41.26-.31s.05.4.08.61a.7.7 0 00.09.17c.21-.18.31-.63.54-.88H18c0 .18 0 .36.09.39a5.57 5.57 0 00.66.1.51.51 0 00.13-.12c.22-.42.44-.86.66-1.29h.6a.42.42 0 00.07.38c.09.08.14-.05.16-.38H21a5.52 5.52 0 01.5-.87c.13.15.09.39.1.62l-.26.47c.08.21.2.18.31.24s.18.25.29.42l.71-1.38h.48c.09-.14.13-.36.26-.38s.08 0 .08.62l.25.5v.9c.05.16.11.22.19.23a.25.25 0 00.27-.29c0-.46.17-.63.24-.93s-.08-.8.12-1.09h.71l.26.47h.22a1 1 0 01.11.65l-.22.49c0 .23-.08.55.14.63l.43-.85.49.91.42-.81.43-.33c-.09-.12-.14-.25-.21-.27s-.23 0-.35 0-.12-.15-.17-.23v-.9c.12-.26.25-.31.4-.11s.11.21.18.33l.25-.44h.23l.24.44.25-.42.42.83a.34.34 0 00.11.07c.28.11.28.11.28.5v.64c.09.26.21.25.34.24l.26-.45h.48l.32-.75a1.51 1.51 0 010-.31c0-.13.09-.31.13-.32h1.63l.25.42a3.16 3.16 0 01.29-.41c.14-.13.28.1.23.66 0 .15.05.09.07 0s0-.29-.1-.19a.69.69 0 00-.11.27s.06.14.14-.07a.48.48 0 01.42-.21l.26.45c.1-.54.43-.29.58-.68v-.46c.06-.09.12-.24.18-.24h1.33l.26.42.25-.41h.46l.25.45h.7l.25-.45h.46l.26.42.25-.36c.23-.15.46 0 .72-.09l.22-.37.24.39h.23l.25-.45.25.43.18-.37c.33-.23.68 0 1-.14l.17-.32h.08c.02 0 .11.22.18.35h1l.24-.42h2.12l.24-.47h.23l.25.47h.24L47 6.1c.07 0 .14-.1.21-.1h1.42A3.11 3.11 0 0049 6l.18-.35c.14 0 .17.23.27.35l.25-.4.24.42.25-.46h1.17c.07-.12.12-.24.18-.34s.06 0 .08 0l.17.32c.23.15.46 0 .72.09l.27-.44h.7l.24.41.25-.44h.23l.25-.44c.24.47.24.46.49.39l.18-.35a2.37 2.37 0 01.92 0h3.66l.23-.43h1.66l.24.41.17-.59h1.41l.25-.45h1.19c.06.12.11.23.17.34a.24.24 0 00.08.06l.17-.33c.27-.16.54-.06.81-.08h1.54c.24 0 .55.07.81-.07l.19-.36h.49c.13.09.2.6.46.42l.25-.45h1.41l.25-.45h.94l.26.45h.24l.17-.33s.07-.08.1-.08c.23 0 .47-.07.69.07l.18.33c.17 0 .23-.65.62-.16l.12.21h.2l.26-.46h3.29l.25-.43h.47l.25.4.19-.36s.07-.06.11-.06h2.5l.27-.44H84l.27-.47H85l.25.44h.23l.27-.47h.93l.2-.4a2.74 2.74 0 011 0l.19.36c.25.1.31.15.49.5l.26-.43H89l.25-.46h.23l.25.43.19-.42a.85.85 0 01.22-.09h1.25l.2.4s.07.06.11.06h1.56l.25.43h.23l.26-.4.25.42.24-.41c.12.22.21.45.4.45s.18.23.32.41h.45l.24-.41H98l.25.44h1.4l.27.47h.21l.25.43a.6.6 0 00.12-.4c0-.35.07-.49.17-.49h.89l.21-.39c.17.06.25.58.48.39l.26.45.48-.88h.72l.43.83.22.07a6.7 6.7 0 00.52-.92h.23l.26.46h.69l.25.43.18-.35c.15-.08.16.25.08.23a1.87 1.87 0 00.87.15 5.79 5.79 0 00.52-.92h1.65l.25-.46h.47l.26.46.24-.05.43-.85h.48c.19.18.29.62.5.86l.24-.43h.22l.25.42.21-.41h.47l.25-.4a1.94 1.94 0 01.69 0l.26.44.25-.44h.46l.26.47h.46c.11.22.11.22-.13.7l.63 1.11h.19c0-.11.13-.21.13-.33V1.14c0-.06.06-.11.08-.16l.26.45h.22l.24-.41h.71c.15.17.09.43.12.64s.1.23.15.17a.25.25 0 00.14-.23v-.45l.35-.68h.48l.24.44.25-.44a4.3 4.3 0 01.1 1.51c.07.4.26.28.39.38s0 .11.09.17V3c.23.36.24.36.48 0v-.92l.23-.5c0-.62 0-.59.34-.68.09 0 .17-.28.26-.44h.46l.25.44a.66.66 0 00.08-.38c0-.52 0-.52.27-.52h.33l.18.35c.19.26.48-.18.64.34v.44c.15.38.48.13.58.67h.46c.09.16.17.33.26.47s.08 0 .12 0v.65a.38.38 0 00.06.16s.06.09.08.07a.26.26 0 00.07-.15c.07-.49 0-.63-.21-.73v-.66c.11-.26.26-.34.4-.12s.22.38.4.37.16.26.15.52-.06.37-.23.38-.16 0-.21.16 0 .18.08.33c.22.48.17.79-.15.89-.08 0-.14.06-.2.23l.31.63a1.13 1.13 0 00.7.06c.12 0 .17-.22.18-.49s0-.38.33-.42l.49.9.25-.42c.06.13.12.24.18.35a1 1 0 00.21.09 1.66 1.66 0 00.33 0l.2-.39.26.41h1.17l.24-.42.25.44h.7a.69.69 0 00.12-.38c.06-.56.07-.57.38-.5l.18.35a.45.45 0 00.54 0c.09-.06.11-.21.09-.39h.11a4.6 4.6 0 00.25-.44c.15.29.28.56.43.83 0 0 .06 0 .1.08s.16 0 .21-.09c.15-.25.28-.53.42-.8.12.1.13.3.14.52a1.58 1.58 0 00.11.37h.24l.25.46c.32 0 .32 0 .35-.67l.3-.62c.06-.07.14 0 .16.16.08.6.08.61.34.68l.26-.44.24.43h.23l.25.45h.46l.25-.43h.49c.11.63.55.24.66.89l.26-.42h.23l.25.45.25-.44h.46l.27.47h1.4c.15.42.36.55.74.48-.22.27-.28.41-.35.42h-1.32l-.22-.53h-.22l-.26.46h-.47l-.24-.46-.26.46h-1.17l-.18.35c-.22.19-.46.06-.73.1l-.26.4c-.2.13-.43 0-.66.07a.34.34 0 00-.16.23c0 .16.1.23.18.22s.29.14.28.52a.71.71 0 000 .21.76.76 0 00.09.18h5l.26.46.25-.44h.7c.21.17 0 .77.26.87 0-.11.11-.22.16-.32.23-.18.46-.06.73-.1l.29-.41h.45c.13.19.22 0 .49 1.33.21-.17 0-.73.25-.9h.47c.12.22.23.44.34.66s0 .3 0 .44.11.25.23.05v-.92c.19-.43.42-.22.67-.14l.06.52.86 1.69c.24.07.33-.16.32-.64 0-.09.09-.2.15-.28s.08 0 .12 0h.24a1.32 1.32 0 01.18.22l.6 1.15.25-.45h.22l.25.43.27-.46h.45l.18-.36c.19.11.29.41.4.68s0 .3 0 .45l.42.81c0 .41.16.87-.1 1.18l-.24-.4-.18.36c-.13 0-.17-.23-.26-.33-.14.09-.21.36-.32.55a.22.22 0 000 .16c0 .06.05.15.08.15h.94l.25.46h.24c.16-.32.33-.63.45-.87.19-.05.3 0 .37.24V15l.34.65c.23-.13 0-.74.31-.89h.42l.33.66v.48a5.81 5.81 0 00.31.61c.15.2.29.13.4-.16V15c.06-.19.12-.23.17-.13s.11.22.18.34l.25-.44.32.66c0 .48-.36.08-.44.5v.49l.36.61s.09-.06.1-.24 0-.46.11-.6.12-.52.17-.79c0-.06.05-.14.08-.15s.08.08.08.14a2 2 0 00.41 1.21h.23c.22.43.44.87.68 1.32l.25-.44h.22l.25-.45a.52.52 0 01.11.38c0 .25 0 .5.16.51s.28.16.39.38.33 0 .39.35l-.22.46a1.64 1.64 0 01.26 1.13h.32c.19.52.19.52-.08 1.1 0 .42.23.23.35.33l.33.65v.69h-.11c-.02 0-.17-.31-.26-.47h-.45l-.28-.47h-.43a2.58 2.58 0 00-.3-.43c-.14-.13-.28.1-.3.45-.08-.05-.16 0-.19.14a2.44 2.44 0 000 .39c0 .15 0 .3.1.34s.12-.14.13-.23 0-.43 0-.64.17 0 .2.16a2.24 2.24 0 00.42 1.17l.17-.33.22-.08h.24a2.13 2.13 0 01.41.75v.45c.16.37.37.06.62.3l.19.34.23-.42h1.21l.09.18-.33.68h-.47l-.26.42h-1.15l-.27.47-.24-.43-.26.47h-.46l-.17.34s-.07.1-.1.1a3.61 3.61 0 01-.93-.05l-.19-.38-.25.4-.24-.41-.25.45h-1.17l-.25.44c-.25.19-.33-.33-.47-.37l-.36.59v.51c0 .05.05.15.08.15.32 0 .63.05.94.07l.27-.45.24.42.24-.42c.13.23.24.45.35.67a4.78 4.78 0 01-.07.89c0 .15 0 .09.07 0s0-.29-.1-.19a.69.69 0 00-.11.27s.06.14.14-.08.16-.17.19-.21.17-.31.24-.44h.79c.12.2.2.5.39.45s.19-.25.28-.38.12 0 .15.17a3.23 3.23 0 010 .44c.11.2.11.2.35-.23h.46s.06.08.08.14a.3.3 0 01-.06.32.83.83 0 00-.09.16c0 .12 0 .28.11.29a5.06 5.06 0 00.67 0l.27-.43.21.4h.44l.3-.47h1.36c.06 0 .13.16.16.28s0 .56-.1.6a1 1 0 01-.24 0l-.25-.45-.25.45c-.12 0-.25-.05-.33.22l.21.47c-.05.07-.11.22-.16.22a8.16 8.16 0 01-.86 0l-.25-.4c-.26.07 0 .7-.25.84l-.24-.43-.25.44h-.46l-.26-.42c-.07.14-.12.25-.18.36-.23.14-.46.05-.72.08l-.26.42-.24-.4h-.22a.68.68 0 00-.14.55c0 .14.08.35.12.35h1.42l.24.43.25-.4.18.35s.07.08.1.08h3.2s.07-.05.1-.08l.18-.35h.33c.24 0 .35.31.26.73 0 .16 0 .16-.31.19a.67.67 0 00-.09.14 3.24 3.24 0 00-.17.32h-1s-.06.09-.08.15 0 .28.1.29h.94s.06.11.1.19l-.33.68h-.74l-.23.44h-.9c-.05 0-.1.16-.14.25l.33.66h.23l.25.44.25-.41.18.35c.22.15.46 0 .72.08l.26-.42c.13-.08.28-.11.35.23v.9c-.16.4-.38.1-.62.32l-.2.35h-.7l-.26.46h-.22l-.25.41-.18-.35c-.15-.16-.31-.06-.46-.08a1 1 0 00-.35 0c-.16 0-.31-.07-.46.07l-.18.35h-.33c-.22 0-.23 0-.28-.51a.69.69 0 00-.11-.39l-.25.44h-.22c-.22.18 0 .78-.31.92h-.19l-.42-.81c-.15.06-.15.06-.17.62-.06.07-.12.21-.19.21h-1.32l-.25-.44h-.23l-.26.46h-.22l-.26.47h-.69l-.26.42-.2-.39a1.06 1.06 0 00-.32 0c-.18 0-.28-.18-.37-.42-.15 0-.17.24-.16.46a.55.55 0 01-.11.39l-.25-.44h-.23L153 41l-.25-.41a1.3 1.3 0 01-.1.18c-.21.36-.25.36-.48 0-.07-.1-.12-.19-.2-.22s-.24.08-.27.3 0 .3 0 .44a.48.48 0 01-.08.16h-.24c-.08-.15-.16-.31-.25-.45s-.08 0-.11 0v-1 .09c0 .01.13 0 .18-.12a.23.23 0 00-.05-.29l-.07.06a.54.54 0 00-.08.26.35.35 0 00-.2.25 1.06 1.06 0 000 .61c0 .16.11.21.2.16 0 .17 0 .33-.09.38s-.37.12-.47.49c0 0-.07 0-.09-.05l-.66-1.28h-.12v-.45c0-.37-.1-.52-.29-.47s-.15.13-.25.66c0 .15 0 .09.06 0s0-.29-.1-.19a.9.9 0 00-.1.27s.06.14.14-.08.27 0 .34.11.13.23.21.18zm-131.23 5a.36.36 0 00.14-.21c.05-.19 0-.29-.1-.19a.69.69 0 00-.1.27s.06.14.21-.48a.58.58 0 000 .19c.07.06.13 0 .18-.11a.24.24 0 000-.29s-.06 0-.08.06a4 4 0 00-.25.78zm32.15 9.3a2.08 2.08 0 00.35 0s.06-.08.08-.14 0-.26-.08-.3a.83.83 0 00-.35 0 1.59 1.59 0 000-.22c-.11-.23-.22-.43-.34-.65-.14 0-.18.37-.34.42s-.28.13-.25.71l.33.65c.08-.15.16-.31.25-.45s.07 0 .11 0a.42.42 0 00.08.38c.08.06.14-.07.16-.4zm-1.9-4.61c.09 0 .16 0 .19-.15a2.44 2.44 0 00.05-.39c0-.14 0-.3-.1-.33s-.12.13-.13.22a5.8 5.8 0 01-.15 1.06.64.64 0 00.14-.21c0-.2 0-.29-.1-.2a.76.76 0 00-.11.27s.06.14.21-.27zm-1.08 0h-.1a.47.47 0 00.06.36c.06.09.1.08.15-.09a.29.29 0 000-.15s-.05-.1-.18-.12c0-.18 0-.35-.09-.39a.68.68 0 01-.48-.51c-.05.1-.14.18-.14.27v.9c0 .06.05.11.09.17l.25-.44zm3.93 3.22v.65a.28.28 0 00.06.16s.06.08.07.07a.31.31 0 00.08-.15c.07-.49 0-.63-.21-.73v-1.11c0-.08-.09-.15-.14-.21s-.06.09-.08.15 0 .15 0 .22c-.09.43-.06.51-.27.5s-.31-.12-.42.18c.09.27.09.27.91.27zM9.84 31.83h-.23l-.25.45c-.12 0-.25-.06-.32.2a1.23 1.23 0 000 .43c.05.37.24.26.37.35a.22.22 0 01.08.16.33.33 0 01-.05.16c-.12.17-.32 0-.41.34v.9c.08.21.19.26.31.23a2.31 2.31 0 00.42-.79V33c.24-.64.24-.64.08-1.17zm.36-3.66v2l-.23.48c.08.25.2.22.32.22a2.13 2.13 0 00.38-.8c0-.36-.09-.78.12-1 .12 0 .25.07.33-.19a1.62 1.62 0 00-.34-.71zm42.43 27.4v-.94l-.24-.4v-.71a.56.56 0 00-.08-.39c-.06-.07-.1 0-.17.14a3.18 3.18 0 01-.25.41l.26.54v1.36c.25.3.25.3.48-.01zM12.68 25.83c-.1 0-.26-.11-.3.17s.11.32.17.48c-.05.49-.36.09-.44.48.05.09.11.24.16.24s.39.15.54-.22v-.46c.09-.38.38-.06.46-.48l-.34-.66zM7.4 36.9h.3a1.06 1.06 0 00.12-.34 1.49 1.49 0 000-.42.4.4 0 00-.11-.14.33.33 0 01-.07-.32c0-.15.11-.19.19-.14s.16 0 .2-.17a.24.24 0 00-.21-.3h-.1l-.35-.61c-.01.85-.04 1.54.03 2.44zM150.77 14l-.24-.41v-.93c-.23-.33-.24-.33-.49 0l.25.42v1.84c0 .07.09.14.13.19l.34-.61zM32.25 47.74a.6.6 0 00.08.16c.05.05.14 0 .15-.19V45.9c-.23-.33-.23-.33-.47 0v.45l.24.48zm-10.19-1.87l.18-.34a.89.89 0 00.08-.17c.05-.16.22-.23.15-.48s-.2-.13-.31-.11l-.34.66v.91c.23.35.23.35.46 0zm91.76 4.65l.32.68c.12 0 .25.1.32-.17a2.07 2.07 0 00-.08-1.21h-.25zM44.2 49.29c0-.06.13-.13.13-.2v-1.33a.41.41 0 00-.07-.17h-.08l-.57 1c.09.29.21.25.32.31s.17.25.27.39zm115.22-25.73l-.36.65c.15.23.24.68.43.67s.29-.07.29-.68zM13.87 36.44a1.42 1.42 0 00.12-.81.87.87 0 00-.12-.58c-.11 0-.24-.1-.32.17a2.18 2.18 0 00.09 1.22zm-.09-12.75a.53.53 0 00-.65-.11l-.32.63c.11.27.25.32.39.16s.14-.37.26-.38.22.01.32-.3zM13 13.14a3.23 3.23 0 000-.44c0-.17-.1-.24-.15-.17s-.14.36-.26.38a.31.31 0 00-.3.24 3.23 3.23 0 000 .44c0 .17.1.24.15.17s.14-.37.26-.38a.29.29 0 00.3-.24zm144.31 8.54h-.18c-.04 0-.15 0-.19.15a.3.3 0 00.07.32c.15.18.09.52.16.77s.11.2.16 0a4.14 4.14 0 00.02-1.24zm-.46 2.06c.2.21.27.6.49.73l.3-.24c-.19-.21-.26-.6-.49-.73zm4.55 12.91c-.16-.28-.32-.32-.48 0 0 .06 0 .11.08.16s.05.12.08.16.11.4.24.28.1-.38.12-.6zM14.7 24.68a1.61 1.61 0 010 .22.45.45 0 00.08.38c.05.07.1 0 .16-.14s.17-.29.25-.44c-.19-.36-.33-.36-.49-.02zm-9.83-.24a.92.92 0 000 .92 1 1 0 00.08-.14 1.19 1.19 0 00.05-.16c.06-.16.21-.22.15-.47s-.15-.12-.28-.15zm27.84 23.32c.08.15.17.28.24.44s.11.21.17.15.06-.4.07-.6c-.19-.34-.31-.34-.48.01zM10.91 33c-.07-.2-.18-.25-.3-.23s-.31-.07-.41.23c.07.2.18.24.3.23s.31.05.41-.23zm149.23 3.47l-.08.13a1.09 1.09 0 00-.08.15c-.06.16-.2.24-.16.47s.2.13.3.16a.87.87 0 00.02-.93zm-5.07-3.86s.05.14.08.15a.45.45 0 00.23 0s.06-.08.08-.14a.26.26 0 000-.15.2.2 0 00-.39 0 .81.81 0 000 .12zM16.6 40.13h.11a.3.3 0 00.09-.29.4.4 0 00-.08-.16h-.12a.23.23 0 00-.2.3c.04.15.11.2.2.15zm1.07.46a.89.89 0 000-.92.89.89 0 000 .92zm.91-.07h.08a.84.84 0 000-.76.06.06 0 00-.08 0 .87.87 0 000 .76zm-5.65 3.76a.89.89 0 000-.92.89.89 0 000 .92zM117.62 52c0 .06 0 .14.08.15a.36.36 0 00.23 0L118 52a.38.38 0 000-.15c0-.24-.31-.25-.39 0a.37.37 0 00.01.15zm-63.81 2.89h-.11a.4.4 0 00-.08.16.28.28 0 00.09.29h.11c.04 0 .15 0 .2-.16a.23.23 0 00-.21-.29zm50.73 1.61c-.15-.33-.31-.33-.47 0 .16.33.32.33.47 0zm-89.8-28.67a.81.81 0 000 .16c.08.23.34.22.39 0a.29.29 0 000-.16.2.2 0 00-.39 0zm145.75-3.62c.15.34.31.34.47 0-.16-.33-.32-.33-.47 0zm-58 32.45c.05.05.11 0 .15-.16s0-.11-.07-.15-.11 0-.16.16.05.09.08.15zM53 54.81s.11 0 .15-.16 0-.11-.07-.14-.11 0-.16.15a.76.76 0 00.08.15zm60.39-.81c0 .05-.08.13-.07.15s.1.22.15.16a.56.56 0 00.08-.15c-.05-.16-.1-.16-.16-.16zm-60 .23s.07.16.08.15a.32.32 0 00.08-.3c0-.06-.07-.16-.08-.15a.34.34 0 00-.09.34zm2.33-.54a1.19 1.19 0 00.08.16c.05.06.11 0 .16-.16a.56.56 0 00-.08-.15c-.06-.02-.11.04-.17.19zm-1.34-.61a.76.76 0 00-.08.15c.05.16.11.22.16.15s.08-.12.07-.14-.11-.17-.16-.12zm-.63 0c-.06 0-.11 0-.16.16a.41.41 0 00.08.14c.05.07.11 0 .15-.15s-.06-.06-.08-.11zm60.17-.54s.06-.09.08-.15a.32.32 0 00-.08-.3s-.06.09-.08.15a.33.33 0 00.07.34zm-82.3-5.92c0 .05-.08.13-.07.15s.1.22.15.16a.56.56 0 00.08-.15c-.06-.12-.11-.17-.17-.12zm.2-2.23a.31.31 0 00.08.3s.06-.09.08-.15a.3.3 0 00-.08-.29s-.06.13-.09.18zm-14.19-5.57a.76.76 0 00-.08.15c.05.16.11.22.16.16s.08-.13.07-.15-.1-.21-.15-.16zm140-1.23s.05.11.08.15.11 0 .16-.15a.56.56 0 00-.08-.15c-.04-.06-.1 0-.15.15zm-144-.15c-.06 0-.11 0-.16.16a.75.75 0 00.08.14c.05.06.11 0 .15-.15s0-.1-.02-.15zm-3.4-6a.76.76 0 00-.08.15c.05.16.11.22.16.16s.08-.13.07-.15-.05-.21-.1-.16zm5.21-6.15c.06.05.11 0 .16-.16a.41.41 0 00-.08-.14c-.05-.07-.11 0-.15.15s.1.1.12.15zm132.8-3.69s.11 0 .15-.16 0-.11-.07-.14-.11 0-.16.15a.76.76 0 00.08.15zM6.84 17.22a1.16 1.16 0 00-.07-.15.27.27 0 00-.08.3c0 .06.06.16.07.15a.32.32 0 00.08-.3zM146.34 13s-.08.13-.07.15.1.22.15.16a.56.56 0 00.08-.15c-.05-.16-.1-.22-.16-.16z" fill="#fff"/><path d="M43.22 41.28a7.15 7.15 0 01-5.13 1.86 7 7 0 01-5.74-2.51c-2.21-2.5-2.16-6.8-2.14-12.63s0-10.21 2.19-12.71a7.07 7.07 0 015.75-2.48 7.05 7.05 0 015.17 1.92A8.93 8.93 0 0145.68 21H41a5.66 5.66 0 00-.7-2.88A2.33 2.33 0 0038.15 17a2.4 2.4 0 00-2.22 1.13c-.87 1.41-1 4.41-1.06 9.83s.15 8.42 1 9.83a2.4 2.4 0 002.21 1.13 2.35 2.35 0 002.21-1.07 5.92 5.92 0 00.71-2.91h4.66a8.9 8.9 0 01-2.44 6.34zM59 40.85a5.89 5.89 0 01-5.22 2.33 5.87 5.87 0 01-5.2-2.35c-1.37-1.92-1.53-5.29-1.53-9s.18-7.09 1.56-9 3.09-2.29 5.22-2.28 3.91.51 5.2 2.3 1.53 5.3 1.53 9-.17 7.09-1.56 9zm-3.45-15.47a2.09 2.09 0 00-1.71-.92 2 2 0 00-1.71.92c-.59 1-.63 3.2-.64 6.46s0 5.5.61 6.5a2 2 0 001.71.88 2 2 0 001.71-.88c.59-1 .63-3.24.64-6.5s-.03-5.45-.61-6.46zM80.22 42.9V27.1c0-1.71-1-2.54-2.2-2.54s-2.17.82-2.17 2.53v15.8h-4.42v-15.8c0-1.7-.95-2.54-2.16-2.54s-2.17.83-2.17 2.54v15.79h-4.42v-22H67v1.62a5 5 0 011.46-1.37 4.44 4.44 0 012.21-.58 5.23 5.23 0 014.29 2.26 8.19 8.19 0 012-1.66 5.31 5.31 0 012.33-.58 4.82 4.82 0 014.17 1.72c.87 1 1.29 2.21 1.28 4.75v15.83zm18.88-1.34a4.55 4.55 0 01-3.88 1.7 4.35 4.35 0 01-2.22-.59 4.45 4.45 0 01-1.29-1.17v9.13h-4.42L87.35 21h4.25v1.62a5.18 5.18 0 011.46-1.37 4.41 4.41 0 012.21-.58 4.55 4.55 0 013.87 1.72c1.45 1.79 1.53 4.83 1.52 9.59s-.1 7.79-1.56 9.58zm-3.47-16.09a2 2 0 00-1.63-.92 2.11 2.11 0 00-1.5.58 2.77 2.77 0 00-.72 2.08v9.46a2.78 2.78 0 00.71 2.08 2.13 2.13 0 001.5.55 2 2 0 001.67-.87c.58-1 .63-3.25.63-6.5s-.08-5.46-.66-6.46zm15.25-.47a3.52 3.52 0 00-3.67 3.78v14.21h-4.42v-22h4.25v2.33a6.5 6.5 0 015.34-2.65V25zm10.72 18v-1.9a5.36 5.36 0 01-1.33 1.46 4.07 4.07 0 01-2.51.75 4.91 4.91 0 01-4.12-1.85 7.59 7.59 0 01-1.32-4.92 6.33 6.33 0 012.05-4.91c1.09-1 2.5-1.5 5-1.49h2v-3c0-1.62-.74-2.54-2.12-2.54a1.79 1.79 0 00-1.46.62 2.79 2.79 0 00-.67 2h-4.42a6.43 6.43 0 011.89-4.75 6.81 6.81 0 014.63-1.78 6.35 6.35 0 014.66 1.63 7 7 0 011.91 5.18V43zm-.23-9.71h-1.46a3 3 0 00-2.29.66 3.64 3.64 0 00-.88 2.46c0 2 .78 3 2.28 3 1.34 0 2.34-1.12 2.34-2.91zM136.55 25a3.53 3.53 0 00-3.67 3.78v14.21h-4.42v-22h4.25v2.33a6.45 6.45 0 011.92-1.74 6.58 6.58 0 013.42-.91V25z" fill="#ef9ec3"/></g></g></svg><svg width="251" height="80" viewBox="-1 -1 251 80" y="79" xmlns="http://www.w3.org/2000/svg"><defs><filter id="a" x="29" y="20" width="249" height="78" filterUnits="userSpaceOnUse"><feOffset result="offset" dx="3.109" dy="2.517" in="SourceAlpha"/><feGaussianBlur result="blur" stdDeviation="4.899"/><feFlood result="flood" flood-color="#292929" flood-opacity=".1"/><feComposite result="composite" operator="in" in2="blur"/><feBlend result="blend" in="SourceGraphic"/></filter></defs><path data-name="Siéntete confiada" d="M63.886 62.557c0-4.667-.792-6.75-4.167-8.125l-3.333-1.375c-2.375-1-2.833-1.875-2.833-4.792a5.211 5.211 0 011.042-3.542 2.994 2.994 0 012.292-.917 2.922 2.922 0 012.417 1 5.239 5.239 0 01.917 3.583H63.8c0-2.708-.458-4.625-1.958-6.083a6.821 6.821 0 00-4.915-1.706 6.713 6.713 0 00-4.708 1.708 7.987 7.987 0 00-2.25 6.083c0 4.5 1 6.167 4.042 7.417l3.375 1.375c2.417 1 2.917 2.042 2.917 5.458 0 1.958-.167 3.083-.958 3.958a3.8 3.8 0 01-5 .042c-.792-.833-1-1.917-1-3.875h-3.584c0 3.167.458 4.875 1.833 6.25a7.1 7.1 0 005.206 1.791 7.361 7.361 0 005.25-1.792c1.419-1.415 1.836-3.374 1.836-6.458zm5.875 7.958V49.307h-3.375v21.209h3.375zm.291-25.415v-3.918h-3.958V45.1h3.958zm14.333 15.416c0-4.625-.083-8.292-1.875-10.25a5.385 5.385 0 00-4.25-1.666 5.589 5.589 0 00-4.25 1.667c-1.667 1.708-1.875 4.917-1.875 9.458s.25 7.75 1.917 9.458a5.354 5.354 0 004.25 1.667 5.657 5.657 0 004.292-1.583 6.846 6.846 0 001.708-4.75h-3.333a3.928 3.928 0 01-.75 2.458 2.49 2.49 0 01-1.917.833 2.345 2.345 0 01-1.875-.917c-.75-.958-.917-2.958-.917-6.375h8.875zm-3.375-2.542h-5.5c0-2.917.208-4.667.875-5.458a2.345 2.345 0 011.875-.916 2.431 2.431 0 011.917.917c.667.79.833 2.54.833 5.457zm1.708-17.5h-3.083L76.8 46.1h2.542zm15.834 30.042V54.641c0-2.333-.417-3.5-1.292-4.458a4.523 4.523 0 00-3.667-1.583 4.37 4.37 0 00-2.333.667 4.518 4.518 0 00-1.333 1.333v-1.668h-3.25v21.584h3.375V54.641c0-2 1.125-3 2.542-3s2.583 1 2.583 3v15.875h3.375zm10.541 0v-3.042c-2.25 0-3.458-.958-3.458-3.25V51.557h3.333v-2.625h-3.333v-5.916h-3.375v5.917H99.8v2.625h2.459v12.791a5.912 5.912 0 001.875 4.833c1.376 1.167 3.042 1.334 4.959 1.334zm13.083-10c0-4.625-.083-8.292-1.875-10.25a5.385 5.385 0 00-4.25-1.667 5.59 5.59 0 00-4.25 1.667c-1.667 1.708-1.875 4.917-1.875 9.458s.25 7.75 1.917 9.458a5.354 5.354 0 004.25 1.667 5.655 5.655 0 004.291-1.583 6.847 6.847 0 001.709-4.75h-3.334a3.923 3.923 0 01-.75 2.458 2.489 2.489 0 01-1.916.833 2.344 2.344 0 01-1.875-.917c-.75-.958-.917-2.958-.917-6.375h8.875zm-3.376-2.542h-5.5c0-2.917.208-4.667.875-5.458a2.345 2.345 0 011.875-.917 2.432 2.432 0 011.917.917c.667.791.833 2.541.833 5.458zm13.291 12.542v-3.042c-2.25 0-3.458-.958-3.458-3.25V51.557h3.333v-2.625h-3.333v-5.916h-3.375v5.917H122.8v2.625h2.458v12.791a5.915 5.915 0 001.875 4.833c1.376 1.167 3.043 1.334 4.959 1.334zm13.084-10c0-4.625-.084-8.292-1.875-10.25a5.385 5.385 0 00-4.25-1.667 5.588 5.588 0 00-4.25 1.667c-1.667 1.708-1.875 4.917-1.875 9.458s.25 7.75 1.916 9.458a5.354 5.354 0 004.25 1.667 5.657 5.657 0 004.292-1.583 6.842 6.842 0 001.708-4.75h-3.333a3.93 3.93 0 01-.75 2.458 2.49 2.49 0 01-1.917.833 2.345 2.345 0 01-1.875-.917c-.75-.958-.916-2.958-.916-6.375h8.875zm-3.375-2.542h-5.5c0-2.917.208-4.667.875-5.458a2.344 2.344 0 011.875-.917 2.428 2.428 0 011.916.917c.668.791.834 2.541.834 5.458zm23.124 6.542h-3.333a3.568 3.568 0 01-.708 2.5 2.358 2.358 0 01-1.834.792 2.313 2.313 0 01-1.916-.917c-.792-1.083-.875-3.292-.875-7.167s.083-6.125.875-7.208a2.313 2.313 0 011.916-.917 2.284 2.284 0 011.875.833 3.789 3.789 0 01.667 2.5h3.333a6.962 6.962 0 00-1.708-4.917 5.522 5.522 0 00-4.208-1.417 5.32 5.32 0 00-4.542 2c-1.334 1.708-1.584 4.75-1.584 9.125s.25 7.417 1.584 9.125a5.32 5.32 0 004.542 2 5.709 5.709 0 004.25-1.5 6.8 6.8 0 001.667-4.832zm13.625-4.792c0-4.375-.208-7.417-1.541-9.125a5.3 5.3 0 00-4.584-2 5.225 5.225 0 00-4.542 2c-1.333 1.708-1.583 4.75-1.583 9.125s.25 7.417 1.583 9.125a5.225 5.225 0 004.542 2 5.3 5.3 0 004.584-2c1.334-1.708 1.542-4.749 1.542-9.125zm-3.375 0c0 3.875-.041 6.083-.833 7.167a2.315 2.315 0 01-1.917.917 2.236 2.236 0 01-1.875-.917c-.792-1.083-.875-3.292-.875-7.167s.083-6.125.875-7.208a2.236 2.236 0 011.875-.917 2.315 2.315 0 011.917.917c.793 1.084.834 3.333.834 7.208zm17.667 10.792V54.641c0-2.333-.417-3.5-1.292-4.458a4.52 4.52 0 00-3.666-1.583 4.373 4.373 0 00-2.334.667 4.525 4.525 0 00-1.333 1.333v-1.668h-3.25v21.584h3.375V54.641c0-2 1.125-3 2.542-3s2.583 1 2.583 3v15.875h3.375zm10.416-18.958v-2.626h-3.333v-1.958c0-2.167 1.125-3.25 3.333-3.25v-3.042a7.129 7.129 0 00-4.833 1.375 5.822 5.822 0 00-1.875 4.792v2.083h-2.459v2.625h2.459v18.959h3.375V51.557h3.333zm4.792 18.959v-21.21h-3.375v21.209h3.375zm.292-25.417v-3.918h-3.958V45.1h3.958zm13.833 25.417V54.849a6.432 6.432 0 00-1.708-4.75 5.777 5.777 0 00-4.208-1.5 5.971 5.971 0 00-4.167 1.583 6.157 6.157 0 00-1.667 4.583h3.376a3.294 3.294 0 01.792-2.5 2.218 2.218 0 011.667-.708c1.666 0 2.541 1.083 2.541 3.083v3.417h-2.208a6.231 6.231 0 00-4.583 1.458 6.429 6.429 0 00-1.917 4.875 7.349 7.349 0 001.375 4.833 4.557 4.557 0 003.708 1.625 3.861 3.861 0 002.542-.792 5.457 5.457 0 001.25-1.458v1.917h3.208zm-3.375-6c0 2-1.083 3.375-2.708 3.375-1.75 0-2.625-1.375-2.625-3.625a4.292 4.292 0 011-2.958 3.161 3.161 0 012.417-.792h1.917v4zm17.667 6V40.849h-3.375v9.583a4.183 4.183 0 00-1.208-1.208 4.78 4.78 0 00-5.917.958c-1.375 1.625-1.583 4.542-1.583 9.542s.208 7.917 1.583 9.542a4.422 4.422 0 007.208-.417v1.667h3.292zm-3.375-5.875a3.457 3.457 0 01-.875 2.542 2.387 2.387 0 01-1.75.625 2.211 2.211 0 01-1.833-.917c-.792-1.083-.875-3.292-.875-7.167s.083-6.125.875-7.208a2.211 2.211 0 011.833-.917 2.419 2.419 0 011.75.667 3.351 3.351 0 01.875 2.5v9.875zm17.5 5.875V54.849a6.432 6.432 0 00-1.709-4.75 5.777 5.777 0 00-4.208-1.5 5.973 5.973 0 00-4.167 1.583 6.16 6.16 0 00-1.666 4.583h3.375a3.294 3.294 0 01.791-2.5 2.218 2.218 0 011.667-.708c1.667 0 2.542 1.083 2.542 3.083v3.417h-2.209a6.231 6.231 0 00-4.583 1.458 6.429 6.429 0 00-1.917 4.875 7.349 7.349 0 001.375 4.833 4.558 4.558 0 003.709 1.625 3.858 3.858 0 002.541-.792 5.457 5.457 0 001.25-1.458v1.917h3.209zm-3.375-6c0 2-1.084 3.375-2.709 3.375-1.75 0-2.625-1.375-2.625-3.625a4.292 4.292 0 011-2.958 3.161 3.161 0 012.417-.792h1.917v4z" transform="translate(-29 -20)" fill="#fff" fill-rule="evenodd" filter="url(#a)"/></svg><svg width="196" height="81" viewBox="-1 -1 196 81" x="270" xmlns="http://www.w3.org/2000/svg"><defs><filter id="b" x="60" y="92" width="194" height="79" filterUnits="userSpaceOnUse"><feOffset result="offset" dx="3.109" dy="2.517" in="SourceAlpha"/><feGaussianBlur result="blur" stdDeviation="4.899"/><feFlood result="flood" flood-color="#292929" flood-opacity=".1"/><feComposite result="composite" operator="in" in2="blur"/><feBlend result="blend" in="SourceGraphic"/></filter></defs><path data-name="con Carefree" d="M92.448 136.768h-3.333a3.566 3.566 0 01-.708 2.5 2.356 2.356 0 01-1.833.792 2.313 2.313 0 01-1.917-.917c-.792-1.083-.875-3.291-.875-7.166s.083-6.125.875-7.209a2.314 2.314 0 011.917-.916 2.284 2.284 0 011.875.833 3.792 3.792 0 01.667 2.5h3.333a6.967 6.967 0 00-1.708-4.917 5.525 5.525 0 00-4.208-1.416 5.319 5.319 0 00-4.542 2c-1.333 1.708-1.583 4.75-1.583 9.125s.25 7.416 1.583 9.125a5.322 5.322 0 004.542 2 5.712 5.712 0 004.25-1.5 6.8 6.8 0 001.665-4.834zm13.625-4.791c0-4.375-.208-7.417-1.542-9.125a5.3 5.3 0 00-4.583-2 5.223 5.223 0 00-4.542 2c-1.333 1.708-1.583 4.75-1.583 9.125s.25 7.416 1.583 9.125a5.225 5.225 0 004.542 2 5.3 5.3 0 004.583-2c1.334-1.709 1.542-4.75 1.542-9.125zm-3.375 0c0 3.875-.042 6.083-.833 7.166a2.313 2.313 0 01-1.917.917 2.234 2.234 0 01-1.875-.917c-.792-1.083-.875-3.291-.875-7.166s.083-6.125.875-7.209a2.236 2.236 0 011.875-.916 2.315 2.315 0 011.917.916c.791 1.084.835 3.332.835 7.209zm17.667 10.791v-15.875c0-2.333-.417-3.5-1.292-4.458a4.522 4.522 0 00-3.667-1.583 4.375 4.375 0 00-2.333.666 4.52 4.52 0 00-1.333 1.334v-1.667h-3.25v21.583h3.375v-15.875c0-2 1.125-3 2.541-3s2.584 1 2.584 3v15.875h3.375zm22.749-7.333h-3.583a5.478 5.478 0 01-.959 3.375 3.107 3.107 0 01-4.75-.042c-1.041-1.416-1.25-3.791-1.25-10.833s.209-9.417 1.25-10.833a2.82 2.82 0 012.417-1.125 2.77 2.77 0 012.333 1.041 5.6 5.6 0 01.917 3.417h3.583a8.324 8.324 0 00-2.125-5.917 7.173 7.173 0 00-9.791.375c-2.042 2.25-2.167 5.625-2.167 13.042s.125 10.792 2.167 13.042a6.446 6.446 0 005.083 2.125 6.285 6.285 0 004.583-1.625 8.3 8.3 0 002.292-6.042zm13.291 7.333V127.1a6.43 6.43 0 00-1.708-4.75 5.777 5.777 0 00-4.208-1.5 5.972 5.972 0 00-4.167 1.583 6.158 6.158 0 00-1.667 4.583h3.375a3.3 3.3 0 01.792-2.5 2.22 2.22 0 011.667-.708c1.666 0 2.541 1.083 2.541 3.083v3.417h-2.208a6.232 6.232 0 00-4.583 1.458 6.429 6.429 0 00-1.917 4.875 7.353 7.353 0 001.375 4.834 4.557 4.557 0 003.708 1.625 3.861 3.861 0 002.542-.792 5.456 5.456 0 001.25-1.458v1.916h3.208zm-3.375-6c0 2-1.083 3.375-2.708 3.375-1.75 0-2.625-1.375-2.625-3.625a4.291 4.291 0 011-2.958 3.161 3.161 0 012.417-.792h1.916v4zm14.584-12.668v-3.25a5.955 5.955 0 00-3.542 1.083 5.275 5.275 0 00-1.5 1.542v-2.292h-3.25v21.583h3.378V128.06a3.707 3.707 0 013.917-3.958h1zm12.916 8.666c0-4.625-.084-8.291-1.875-10.25a5.386 5.386 0 00-4.25-1.666 5.59 5.59 0 00-4.25 1.666c-1.667 1.709-1.875 4.917-1.875 9.459s.25 7.75 1.916 9.458a5.353 5.353 0 004.25 1.667 5.657 5.657 0 004.292-1.584 6.841 6.841 0 001.708-4.75h-3.333a3.932 3.932 0 01-.75 2.459 2.491 2.491 0 01-1.917.833 2.345 2.345 0 01-1.875-.917c-.75-.958-.916-2.958-.916-6.375h8.875zm-3.375-2.541h-5.5c0-2.917.208-4.667.875-5.459a2.343 2.343 0 011.875-.916 2.428 2.428 0 011.916.916c.667.794.834 2.544.834 5.461zm13.166-6.417v-2.625h-3.333v-1.958c0-2.167 1.125-3.25 3.333-3.25v-3.042a7.129 7.129 0 00-4.833 1.375 5.822 5.822 0 00-1.875 4.792v2.083h-2.459v2.625h2.459v18.958h3.375V123.81h3.333zm9.708.292v-3.25a5.952 5.952 0 00-3.541 1.083 5.275 5.275 0 00-1.5 1.542v-2.292h-3.25v21.583h3.375V128.06a3.707 3.707 0 013.916-3.958h1zm12.917 8.666c0-4.625-.084-8.291-1.875-10.25a5.386 5.386 0 00-4.25-1.666 5.592 5.592 0 00-4.251 1.666c-1.666 1.709-1.875 4.917-1.875 9.459s.25 7.75 1.917 9.458a5.353 5.353 0 004.25 1.667 5.657 5.657 0 004.292-1.584 6.841 6.841 0 001.708-4.75h-3.333a3.932 3.932 0 01-.75 2.459 2.491 2.491 0 01-1.917.833 2.345 2.345 0 01-1.875-.917c-.75-.958-.917-2.958-.917-6.375h8.876zm-3.375-2.541h-5.5c0-2.917.209-4.667.876-5.459a2.343 2.343 0 011.875-.916 2.428 2.428 0 011.916.916c.662.794.833 2.544.833 5.461zm17.208 2.541c0-4.625-.084-8.291-1.875-10.25a5.386 5.386 0 00-4.25-1.666 5.59 5.59 0 00-4.25 1.666c-1.667 1.709-1.875 4.917-1.875 9.459s.25 7.75 1.916 9.458a5.353 5.353 0 004.25 1.667 5.657 5.657 0 004.292-1.584 6.841 6.841 0 001.708-4.75h-3.333a3.932 3.932 0 01-.75 2.459 2.491 2.491 0 01-1.917.833 2.345 2.345 0 01-1.875-.917c-.75-.958-.916-2.958-.916-6.375h8.875zm-3.375-2.541h-5.5c0-2.917.208-4.667.875-5.459a2.343 2.343 0 011.875-.916 2.428 2.428 0 011.916.916c.667.794.83 2.544.83 5.461z" transform="translate(-60 -92)" fill="#fff" fill-rule="evenodd" filter="url(#b)"/></svg><svg width="156" height="78" viewBox="-1 -1 156 78" y="289" xmlns="http://www.w3.org/2000/svg"><defs><filter id="c" x="77" y="26" width="154" height="76" filterUnits="userSpaceOnUse"><feOffset result="offset" dx="3.109" dy="2.517" in="SourceAlpha"/><feGaussianBlur result="blur" stdDeviation="4.899"/><feFlood result="flood" flood-color="#292929" flood-opacity=".09"/><feComposite result="composite" operator="in" in2="blur"/><feBlend result="blend" in="SourceGraphic"/></filter></defs><path d="M111.536 68.348V46.1h-2.531l-4.469 12.375-4.5-12.375H97.5v22.25h2.687V52.754l3.469 10.157h1.656l3.537-10.411v15.848h2.687zm11.218-7.5c0-3.469-.062-6.219-1.406-7.688a4.039 4.039 0 00-3.187-1.25 4.192 4.192 0 00-3.188 1.25c-1.25 1.281-1.406 3.688-1.406 7.094s.187 5.813 1.437 7.094a4.017 4.017 0 003.188 1.25 4.245 4.245 0 003.219-1.187 5.134 5.134 0 001.281-3.563h-2.5a2.944 2.944 0 01-.563 1.844 1.865 1.865 0 01-1.437.625 1.758 1.758 0 01-1.406-.687c-.563-.719-.688-2.219-.688-4.781h6.656zm-2.531-1.906H116.1c0-2.188.156-3.5.656-4.094a1.76 1.76 0 011.407-.687 1.821 1.821 0 011.437.688c.5.593.623 1.905.623 4.093zM127 69.786V52.441h-2.531v17.25c0 1.813-.875 2.438-2.438 2.438v2.281a5.2 5.2 0 003.532-1A4.371 4.371 0 00127 69.786zm.219-20.5v-2.938h-2.969v2.938h2.969zm10.75 10.969c0-3.281-.156-5.563-1.157-6.844a3.975 3.975 0 00-3.437-1.5 3.916 3.916 0 00-3.406 1.5c-1 1.281-1.188 3.563-1.188 6.844s.188 5.563 1.188 6.844a3.917 3.917 0 003.406 1.5 3.975 3.975 0 003.437-1.5c1.005-1.282 1.161-3.564 1.161-6.845zm-2.532 0c0 2.906-.031 4.563-.625 5.375a1.734 1.734 0 01-1.437.688 1.675 1.675 0 01-1.406-.687c-.594-.812-.657-2.469-.657-5.375s.063-4.594.657-5.406a1.675 1.675 0 011.406-.687 1.734 1.734 0 011.437.688c.598.809.629 2.497.629 5.403zM146 54.348V51.91a4.463 4.463 0 00-2.656.813 3.959 3.959 0 00-1.125 1.156V52.16h-2.438v16.188h2.531V57.317a2.781 2.781 0 012.938-2.969h.75zm13.906 14V56.6a4.822 4.822 0 00-1.282-3.563 4.332 4.332 0 00-3.156-1.125 4.479 4.479 0 00-3.125 1.188 4.618 4.618 0 00-1.25 3.438h2.531a2.472 2.472 0 01.594-1.875 1.664 1.664 0 011.25-.531c1.25 0 1.906.813 1.906 2.313V59h-1.656a4.673 4.673 0 00-3.437 1.094 4.82 4.82 0 00-1.438 3.656 5.51 5.51 0 001.031 3.625 3.419 3.419 0 002.786 1.225 2.894 2.894 0 001.906-.6 4.11 4.11 0 00.937-1.094v1.438h2.407zm-2.532-4.5c0 1.5-.812 2.531-2.031 2.531-1.312 0-1.969-1.031-1.969-2.719a3.222 3.222 0 01.75-2.219 2.372 2.372 0 011.813-.594h1.437v3zm7.25 5.938V52.441H162.1v17.25c0 1.813-.875 2.438-2.437 2.438v2.281a5.192 5.192 0 003.531-1 4.371 4.371 0 001.434-3.624zm.219-20.5v-2.938h-2.969v2.938h2.969zm10.875 19.063V52.16h-2.531v11.907c0 1.5-.844 2.25-1.907 2.25a1.968 1.968 0 01-1.937-2.25V52.16h-2.531v11.907a4.454 4.454 0 00.968 3.344 3.394 3.394 0 002.75 1.188 3.276 3.276 0 001.75-.5 3.378 3.378 0 001-1v1.25h2.438zm10.782-4.407a4.7 4.7 0 00-.688-2.594 5.153 5.153 0 00-2.281-1.844l-2.062-1.031a3.059 3.059 0 01-1.344-1.062 2.379 2.379 0 01-.281-1.187 2.17 2.17 0 01.593-1.563 1.911 1.911 0 011.407-.531 1.816 1.816 0 011.375.563 2.619 2.619 0 01.593 1.938h2.5A4.691 4.691 0 00185 53.067a4.32 4.32 0 00-3.156-1.156 4.412 4.412 0 00-3.188 1.219 4.465 4.465 0 00-1.344 3.281 4.122 4.122 0 00.5 2.125 5.238 5.238 0 002.219 1.875l2.094 1.063a3.66 3.66 0 011.437 1.156 2.594 2.594 0 01.407 1.469 2.319 2.319 0 01-.625 1.625 2 2 0 01-1.532.594 2.085 2.085 0 01-1.437-.562 2.7 2.7 0 01-.688-1.969h-2.5a4.806 4.806 0 001.375 3.563 4.431 4.431 0 003.25 1.25 4.379 4.379 0 003.313-1.281 4.654 4.654 0 001.375-3.377zm7.218 4.406v-2.281c-1.687 0-2.593-.719-2.593-2.437v-9.5h2.5v-1.97h-2.5v-4.437H188.6v4.437h-1.843v1.969h1.843v9.594a4.434 4.434 0 001.4 3.625 5.372 5.372 0 003.721 1zm9.813-7.5c0-3.469-.063-6.219-1.406-7.688a4.041 4.041 0 00-3.188-1.25 4.194 4.194 0 00-3.188 1.25c-1.25 1.281-1.406 3.688-1.406 7.094s.188 5.813 1.438 7.094a4.014 4.014 0 003.187 1.25 4.243 4.243 0 003.219-1.187 5.134 5.134 0 001.281-3.563h-2.5a2.95 2.95 0 01-.562 1.844 1.867 1.867 0 01-1.438.625 1.758 1.758 0 01-1.406-.687c-.563-.719-.688-2.219-.688-4.781h6.657zM201 58.942h-4.125c0-2.188.157-3.5.657-4.094a1.758 1.758 0 011.406-.687 1.821 1.821 0 011.437.688c.502.593.625 1.905.625 4.093z" transform="translate(-77 -26)" fill="#fff" fill-rule="evenodd" filter="url(#c)"/></svg><svg width="270" height="79" viewBox="-1 -1 270 79" xmlns="http://www.w3.org/2000/svg"><defs><filter id="d" x="19" y="388" width="268" height="77" filterUnits="userSpaceOnUse"><feOffset result="offset" dx="3.109" dy="2.517" in="SourceAlpha"/><feGaussianBlur result="blur" stdDeviation="4.899"/><feFlood result="flood" flood-color="#292929" flood-opacity=".09"/><feComposite result="composite" operator="in" in2="blur"/><feBlend result="blend" in="SourceGraphic"/></filter></defs><path data-name="10 veces mas" d="M45.38 431.348V409.1h-2.531l-3.25 2.687v2.938l3.25-2.657v19.282h2.531zm13.187-4.375v-13.5a4.458 4.458 0 00-1.25-3.438 4.744 4.744 0 00-3.219-1.187 4.664 4.664 0 00-3.188 1.187 4.459 4.459 0 00-1.25 3.438v13.5a4.458 4.458 0 001.25 3.437 4.665 4.665 0 003.19 1.19 4.745 4.745 0 003.219-1.188 4.457 4.457 0 001.248-3.439zm-2.531.094a1.968 1.968 0 01-1.937 2.25c-1.062 0-1.906-.75-1.906-2.25v-13.688c0-1.5.844-2.25 1.906-2.25a1.968 1.968 0 011.938 2.25v13.688zM74 415.16h-2.777l-2.437 12.188-2.469-12.188h-2.781l3.906 16.188h2.688zm9.312 8.688c0-3.469-.062-6.219-1.406-7.688a4.04 4.04 0 00-3.187-1.25 4.192 4.192 0 00-3.188 1.25c-1.25 1.281-1.406 3.688-1.406 7.094s.188 5.813 1.438 7.094a4.015 4.015 0 003.188 1.25 4.242 4.242 0 003.219-1.188 5.133 5.133 0 001.281-3.562h-2.5a2.948 2.948 0 01-.562 1.844 1.868 1.868 0 01-1.438.625 1.759 1.759 0 01-1.406-.688c-.563-.719-.688-2.219-.688-4.781h6.656zm-2.531-1.906H76.66c0-2.188.156-3.5.656-4.094a1.759 1.759 0 011.406-.688 1.823 1.823 0 011.438.688c.5.593.625 1.906.625 4.094zm12.75 4.906h-2.5a2.675 2.675 0 01-.531 1.875 1.767 1.767 0 01-1.375.594 1.735 1.735 0 01-1.437-.688c-.594-.812-.656-2.469-.656-5.375s.063-4.594.656-5.406a1.735 1.735 0 011.438-.688 1.715 1.715 0 011.406.625 2.844 2.844 0 01.5 1.875h2.5a5.222 5.222 0 00-1.281-3.687 4.141 4.141 0 00-3.151-1.063 3.99 3.99 0 00-3.406 1.5c-1 1.281-1.187 3.563-1.187 6.844s.188 5.563 1.188 6.844a3.99 3.99 0 003.406 1.5 4.283 4.283 0 003.188-1.125 5.1 5.1 0 001.246-3.625zm10.219-3c0-3.469-.063-6.219-1.406-7.688a4.04 4.04 0 00-3.188-1.25 4.192 4.192 0 00-3.188 1.25c-1.25 1.281-1.406 3.688-1.406 7.094s.188 5.813 1.438 7.094a4.015 4.015 0 003.188 1.25 4.241 4.241 0 003.219-1.188 5.132 5.132 0 001.281-3.562h-2.5a2.946 2.946 0 01-.562 1.844 1.868 1.868 0 01-1.438.625 1.759 1.759 0 01-1.406-.688c-.562-.719-.687-2.219-.687-4.781h6.657zm-2.531-1.906H97.1c0-2.188.156-3.5.656-4.094a1.759 1.759 0 011.406-.688 1.825 1.825 0 011.438.688c.5.593.623 1.906.623 4.094zm12.718 5a4.7 4.7 0 00-.687-2.594 5.162 5.162 0 00-2.282-1.844l-2.062-1.031a3.069 3.069 0 01-1.344-1.063 2.385 2.385 0 01-.281-1.187 2.167 2.167 0 01.594-1.563 1.906 1.906 0 011.406-.531 1.817 1.817 0 011.375.562 2.621 2.621 0 01.594 1.938h2.5a4.693 4.693 0 00-1.313-3.563 4.321 4.321 0 00-3.156-1.156 4.411 4.411 0 00-3.188 1.219 4.463 4.463 0 00-1.343 3.281 4.11 4.11 0 00.5 2.125 5.223 5.223 0 002.218 1.875l2.094 1.063a3.671 3.671 0 011.438 1.156 2.6 2.6 0 01.406 1.469 2.319 2.319 0 01-.625 1.625 2 2 0 01-1.531.594 2.088 2.088 0 01-1.438-.563 2.7 2.7 0 01-.687-1.969h-2.5a4.8 4.8 0 001.375 3.563 4.43 4.43 0 003.25 1.25 4.379 4.379 0 003.312-1.281 4.652 4.652 0 001.379-3.375zm21.344 4.406v-11.906c0-1.751-.281-2.626-.938-3.344a3.463 3.463 0 00-2.906-1.188 3.8 3.8 0 00-1.844.5 5.122 5.122 0 00-1.281 1.188 3.78 3.78 0 00-3.094-1.688 3.283 3.283 0 00-1.75.5 3.392 3.392 0 00-1 1v-1.25h-2.438v16.188h2.532v-11.906c0-1.5.844-2.251 1.906-2.251a1.969 1.969 0 011.938 2.251v11.906h2.531v-11.906c0-1.5.844-2.251 1.906-2.251s1.906.75 1.906 2.251v11.906h2.532zm10.5 0V419.6a4.823 4.823 0 00-1.282-3.563 4.332 4.332 0 00-3.156-1.125 4.478 4.478 0 00-3.125 1.188 4.615 4.615 0 00-1.25 3.437h2.532a2.468 2.468 0 01.594-1.875 1.666 1.666 0 011.25-.531c1.25 0 1.906.812 1.906 2.313V422h-1.65a4.674 4.674 0 00-3.438 1.094 4.823 4.823 0 00-1.437 3.656 5.51 5.51 0 001.031 3.625 3.418 3.418 0 002.782 1.219 2.894 2.894 0 001.906-.594 4.1 4.1 0 00.937-1.094v1.438h2.407zm-2.532-4.5c0 1.5-.812 2.531-2.031 2.531-1.313 0-1.969-1.031-1.969-2.719a3.215 3.215 0 01.75-2.218 2.371 2.371 0 011.813-.594h1.437v3zm1.563-18.032H142.5l-2.125 4.219h1.907zm11.625 18.126a4.7 4.7 0 00-.688-2.594 5.153 5.153 0 00-2.281-1.844l-2.062-1.031a3.063 3.063 0 01-1.344-1.063 2.374 2.374 0 01-.281-1.187 2.171 2.171 0 01.593-1.563 1.91 1.91 0 011.407-.531 1.817 1.817 0 011.375.562 2.621 2.621 0 01.593 1.938h2.5a4.693 4.693 0 00-1.312-3.563 4.321 4.321 0 00-3.156-1.156 4.409 4.409 0 00-3.188 1.219 4.46 4.46 0 00-1.344 3.281 4.11 4.11 0 00.5 2.125 5.221 5.221 0 002.219 1.875l2.094 1.063a3.66 3.66 0 011.437 1.156 2.594 2.594 0 01.407 1.469 2.319 2.319 0 01-.625 1.625 2 2 0 01-1.532.594 2.085 2.085 0 01-1.437-.563 2.7 2.7 0 01-.688-1.969h-2.5a4.807 4.807 0 001.375 3.563 4.431 4.431 0 003.25 1.25 4.38 4.38 0 003.313-1.281 4.656 4.656 0 001.379-3.375zm12.312-9.594v-2.438a4.459 4.459 0 00-2.656.813 3.948 3.948 0 00-1.125 1.156v-1.719h-2.438v16.188h2.531v-11.031a2.781 2.781 0 012.939-2.969h.75zm9.687 6.5c0-3.469-.062-6.219-1.406-7.688a4.04 4.04 0 00-3.188-1.25 4.191 4.191 0 00-3.187 1.25c-1.25 1.281-1.406 3.688-1.406 7.094s.187 5.813 1.437 7.094a4.016 4.016 0 003.188 1.25 4.24 4.24 0 003.218-1.188 5.137 5.137 0 001.282-3.562h-2.5a2.946 2.946 0 01-.563 1.844 1.868 1.868 0 01-1.437.625 1.76 1.76 0 01-1.407-.688c-.562-.719-.687-2.219-.687-4.781h6.656zm-2.531-1.906h-4.125c0-2.188.156-3.5.656-4.094a1.759 1.759 0 011.406-.688 1.824 1.824 0 011.438.688c.504.593.629 1.906.629 4.094zm12.718 5a4.7 4.7 0 00-.687-2.594 5.164 5.164 0 00-2.281-1.844l-2.063-1.031a3.069 3.069 0 01-1.344-1.063 2.385 2.385 0 01-.281-1.187 2.171 2.171 0 01.594-1.563 1.907 1.907 0 011.406-.531 1.817 1.817 0 011.375.562 2.621 2.621 0 01.594 1.938h2.5a4.693 4.693 0 00-1.313-3.563 4.321 4.321 0 00-3.156-1.156 4.407 4.407 0 00-3.187 1.219 4.46 4.46 0 00-1.344 3.281 4.11 4.11 0 00.5 2.125 5.221 5.221 0 002.219 1.875l2.093 1.063a3.664 3.664 0 011.438 1.156 2.6 2.6 0 01.406 1.469 2.319 2.319 0 01-.625 1.625 2 2 0 01-1.531.594 2.088 2.088 0 01-1.438-.563 2.706 2.706 0 01-.687-1.969h-2.5a4.8 4.8 0 001.375 3.563 4.43 4.43 0 003.25 1.25 4.379 4.379 0 003.312-1.281 4.652 4.652 0 001.379-3.375zm10.532-3.688c0-3.75-.125-5.938-1.157-7.156a3.507 3.507 0 00-4.437-.688 3.392 3.392 0 00-1 1v-1.25h-2.438v22.251h2.531v-7.188a3.117 3.117 0 00.907.906 3.582 3.582 0 004.439-.719c1.034-1.218 1.159-3.41 1.159-7.156zm-2.532 0c0 2.906-.031 4.563-.625 5.375a1.717 1.717 0 01-1.406.688 1.792 1.792 0 01-1.313-.469 2.588 2.588 0 01-.625-1.906v-7.407a2.508 2.508 0 01.625-1.875 1.816 1.816 0 011.313-.5 1.717 1.717 0 011.406.688c.602.812.629 2.5.629 5.406zm6.875 8.094v-15.907h-2.531v15.907h2.533zm.219-19.063v-2.937h-2.969v2.937h2.969zm8.312 5.063v-2.438a4.459 4.459 0 00-2.656.813 3.948 3.948 0 00-1.125 1.156v-1.719h-2.438v16.188h2.531v-11.031a2.781 2.781 0 012.938-2.969h.75zm9.312 14V419.6a4.827 4.827 0 00-1.281-3.563 4.333 4.333 0 00-3.156-1.125 4.476 4.476 0 00-3.125 1.188 4.615 4.615 0 00-1.25 3.437h2.531a2.468 2.468 0 01.594-1.875 1.663 1.663 0 011.25-.531c1.25 0 1.906.812 1.906 2.313V422h-1.656a4.674 4.674 0 00-3.438 1.094 4.823 4.823 0 00-1.437 3.656 5.51 5.51 0 001.031 3.625 3.418 3.418 0 002.79 1.225 2.894 2.894 0 001.9-.6 4.088 4.088 0 00.938-1.094v1.438h2.406zm-2.531-4.5c0 1.5-.813 2.531-2.031 2.531-1.313 0-1.969-1.031-1.969-2.719a3.215 3.215 0 01.75-2.218 2.368 2.368 0 011.812-.594h1.438v3zm13.75-3.594c0-3.75-.125-5.938-1.156-7.156a3.584 3.584 0 00-4.438-.719 3.127 3.127 0 00-.906.906V409.1h-2.531v22.25h2.437v-1.25a3.4 3.4 0 001 1 3.509 3.509 0 004.438-.688c1.035-1.22 1.16-3.412 1.16-7.158zm-2.531 0c0 2.906-.032 4.563-.625 5.375a1.719 1.719 0 01-1.407.688 1.789 1.789 0 01-1.312-.469 2.588 2.588 0 01-.625-1.906v-7.407a2.508 2.508 0 01.625-1.875 1.813 1.813 0 011.312-.5 1.719 1.719 0 011.407.688c.596.812.629 2.5.629 5.406zm9.156 8.094v-2.281a2.133 2.133 0 01-2.407-2.438V409.1h-2.531v17.625a4.372 4.372 0 001.438 3.625 5.11 5.11 0 003.504.998zm9.718-7.5c0-3.469-.062-6.219-1.406-7.688a4.04 4.04 0 00-3.187-1.25 4.192 4.192 0 00-3.188 1.25c-1.25 1.281-1.406 3.688-1.406 7.094s.187 5.813 1.437 7.094a4.017 4.017 0 003.188 1.25 4.244 4.244 0 003.219-1.188 5.132 5.132 0 001.281-3.562h-2.5a2.946 2.946 0 01-.563 1.844 1.866 1.866 0 01-1.437.625 1.758 1.758 0 01-1.406-.688c-.563-.719-.688-2.219-.688-4.781h6.656zm-2.531-1.906h-4.125c0-2.188.156-3.5.656-4.094a1.76 1.76 0 011.407-.688 1.822 1.822 0 011.437.688c.504.593.629 1.906.629 4.094zm13.281-5.969l-3-1.594 3-1.563-.937-1.656-2.875 1.781.097-3.941h-1.906l.125 3.937-2.906-1.781-.938 1.656 2.969 1.563-2.969 1.594.938 1.625 2.906-1.75-.125 3.937h1.906l-.093-3.937 2.875 1.75z" transform="translate(-19 -388)" fill="#fff" fill-rule="evenodd" filter="url(#d)"/></svg><svg width="206" height="79" viewBox="-1 -1 206 79" y="159" xmlns="http://www.w3.org/2000/svg"><defs><filter id="e" x="52" y="442" width="204" height="77" filterUnits="userSpaceOnUse"><feOffset result="offset" dx="3.109" dy="2.517" in="SourceAlpha"/><feGaussianBlur result="blur" stdDeviation="4.899"/><feFlood result="flood" flood-color="#292929" flood-opacity=".09"/><feComposite result="composite" operator="in" in2="blur"/><feBlend result="blend" in="SourceGraphic"/></filter></defs><path data-name="Suave para tu piel" d="M83.286 479.379c0-3.5-.594-5.062-3.125-6.094l-2.5-1.031c-1.781-.75-2.125-1.406-2.125-3.594a3.909 3.909 0 01.781-2.66 2.247 2.247 0 011.719-.688 2.194 2.194 0 011.813.75 3.93 3.93 0 01.688 2.688h2.688c0-2.031-.344-3.469-1.469-4.563a5.117 5.117 0 00-3.687-1.281 5.037 5.037 0 00-3.531 1.281 5.992 5.992 0 00-1.687 4.563c0 3.375.75 4.625 3.031 5.563l2.531 1.031c1.813.75 2.188 1.531 2.188 4.094 0 1.468-.125 2.312-.719 2.968a2.852 2.852 0 01-3.75.032c-.594-.625-.75-1.438-.75-2.907h-2.69c0 2.375.344 3.657 1.375 4.688a5.328 5.328 0 003.906 1.344 5.524 5.524 0 003.938-1.344c1.063-1.059 1.375-2.527 1.375-4.84zm10.656 5.969V469.16h-2.531v11.907c0 1.5-.844 2.25-1.906 2.25a1.968 1.968 0 01-1.937-2.25V469.16h-2.532v11.907A4.45 4.45 0 0086 484.41a3.39 3.39 0 002.75 1.188 3.282 3.282 0 001.75-.5 3.391 3.391 0 001-1v1.25h2.438zm10.594 0V473.6a4.823 4.823 0 00-1.282-3.563 4.332 4.332 0 00-3.156-1.125 4.478 4.478 0 00-3.125 1.188 4.617 4.617 0 00-1.25 3.437h2.531a2.47 2.47 0 01.594-1.875 1.664 1.664 0 011.25-.531c1.25 0 1.906.812 1.906 2.313V476h-1.656a4.673 4.673 0 00-3.437 1.094 4.822 4.822 0 00-1.437 3.656 5.51 5.51 0 001.031 3.625 3.417 3.417 0 002.781 1.219 2.9 2.9 0 001.906-.594 4.1 4.1 0 00.937-1.094v1.438h2.407zm-2.532-4.5c0 1.5-.812 2.531-2.031 2.531-1.312 0-1.969-1.031-1.969-2.719a3.216 3.216 0 01.75-2.218 2.37 2.37 0 011.813-.594H102v3zm13.532-11.688h-2.782l-2.437 12.188-2.469-12.188h-2.781l3.906 16.188h2.688zm9.312 8.688c0-3.469-.063-6.219-1.407-7.688a4.038 4.038 0 00-3.187-1.25 4.194 4.194 0 00-3.188 1.25c-1.25 1.281-1.406 3.688-1.406 7.094s.188 5.813 1.438 7.094a4.014 4.014 0 003.187 1.25 4.242 4.242 0 003.219-1.188 5.132 5.132 0 001.281-3.562h-2.5a2.952 2.952 0 01-.562 1.844 1.868 1.868 0 01-1.438.625 1.758 1.758 0 01-1.406-.688c-.563-.719-.688-2.219-.688-4.781h6.657zm-2.532-1.906h-4.125c0-2.188.157-3.5.657-4.094a1.758 1.758 0 011.406-.688 1.822 1.822 0 011.437.688c.5.593.625 1.906.625 4.094zm17.875 1.312c0-3.75-.125-5.938-1.156-7.156a3.509 3.509 0 00-4.438-.688 3.416 3.416 0 00-1 1v-1.25h-2.437v22.251h2.531v-7.188a3.127 3.127 0 00.906.906 3.584 3.584 0 004.438-.719c1.031-1.218 1.156-3.41 1.156-7.156zm-2.531 0c0 2.906-.031 4.563-.625 5.375a1.718 1.718 0 01-1.406.688 1.792 1.792 0 01-1.313-.469 2.588 2.588 0 01-.625-1.906v-7.407a2.508 2.508 0 01.625-1.875 1.816 1.816 0 011.313-.5 1.718 1.718 0 011.406.688c.594.812.625 2.5.625 5.406zm12.625 8.094V473.6a4.823 4.823 0 00-1.285-3.565 4.332 4.332 0 00-3.156-1.125 4.478 4.478 0 00-3.125 1.188 4.615 4.615 0 00-1.25 3.437H144a2.472 2.472 0 01.594-1.875 1.666 1.666 0 011.25-.531c1.25 0 1.906.812 1.906 2.313V476h-1.65a4.671 4.671 0 00-3.437 1.094 4.82 4.82 0 00-1.438 3.656 5.51 5.51 0 001.031 3.625 3.418 3.418 0 002.782 1.219 2.894 2.894 0 001.906-.594 4.1 4.1 0 00.937-1.094v1.438h2.407zm-2.532-4.5c0 1.5-.812 2.531-2.031 2.531-1.312 0-1.969-1.031-1.969-2.719a3.219 3.219 0 01.75-2.218 2.371 2.371 0 011.813-.594h1.437v3zm10.938-9.5v-2.438a4.459 4.459 0 00-2.656.813 3.948 3.948 0 00-1.125 1.156v-1.719h-2.438v16.188H155v-11.031a2.781 2.781 0 012.938-2.969h.75zm9.312 14V473.6a4.827 4.827 0 00-1.281-3.563 4.333 4.333 0 00-3.156-1.125 4.481 4.481 0 00-3.126 1.188 4.619 4.619 0 00-1.25 3.437h2.532a2.468 2.468 0 01.594-1.875 1.663 1.663 0 011.25-.531c1.25 0 1.906.812 1.906 2.313V476h-1.656a4.673 4.673 0 00-3.438 1.094 4.82 4.82 0 00-1.438 3.656 5.51 5.51 0 001.032 3.625 3.416 3.416 0 002.781 1.219 2.894 2.894 0 001.906-.594 4.088 4.088 0 00.938-1.094v1.438H168zm-2.531-4.5c0 1.5-.813 2.531-2.031 2.531-1.313 0-1.969-1.031-1.969-2.719a3.215 3.215 0 01.75-2.218 2.368 2.368 0 011.812-.594h1.438v3zm15.031 4.5v-2.281c-1.688 0-2.594-.719-2.594-2.438v-9.5h2.5v-1.969h-2.5v-4.437h-2.531v4.437h-1.844v1.969h1.844v9.594a4.437 4.437 0 001.406 3.625 5.373 5.373 0 003.716 1zm9.937 0V469.16h-2.531v11.907c0 1.5-.844 2.25-1.906 2.25a1.968 1.968 0 01-1.938-2.25V469.16h-2.531v11.907a4.446 4.446 0 00.969 3.343 3.389 3.389 0 002.75 1.188 3.283 3.283 0 001.75-.5 3.392 3.392 0 001-1v1.25h2.437zm15.937-8.094c0-3.75-.125-5.938-1.156-7.156a3.507 3.507 0 00-4.437-.688 3.392 3.392 0 00-1 1v-1.25h-2.438v22.251h2.531v-7.188a3.117 3.117 0 00.907.906 3.582 3.582 0 004.437-.719c1.031-1.218 1.156-3.41 1.156-7.156zm-2.531 0c0 2.906-.031 4.563-.625 5.375a1.717 1.717 0 01-1.406.688 1.792 1.792 0 01-1.313-.469 2.588 2.588 0 01-.625-1.906v-7.407a2.508 2.508 0 01.625-1.875 1.816 1.816 0 011.313-.5 1.717 1.717 0 011.406.688c.594.812.625 2.5.625 5.406zm6.875 8.094v-15.907h-2.531v15.907h2.531zm.219-19.063v-2.937h-2.969v2.937h2.969zm10.749 11.563c0-3.469-.062-6.219-1.406-7.688a4.04 4.04 0 00-3.187-1.25 4.192 4.192 0 00-3.188 1.25c-1.25 1.281-1.406 3.688-1.406 7.094s.187 5.813 1.437 7.094a4.017 4.017 0 003.188 1.25 4.244 4.244 0 003.219-1.188 5.132 5.132 0 001.281-3.562h-2.5a2.946 2.946 0 01-.563 1.844 1.866 1.866 0 01-1.437.625 1.758 1.758 0 01-1.406-.688c-.563-.719-.688-2.219-.688-4.781h6.656zm-2.531-1.906h-4.125c0-2.188.156-3.5.656-4.094a1.76 1.76 0 011.407-.688 1.822 1.822 0 011.437.688c.5.593.625 1.906.625 4.094zm9.062 9.406v-2.281a2.133 2.133 0 01-2.406-2.438V463.1h-2.531v17.625a4.371 4.371 0 001.437 3.625 5.112 5.112 0 003.5.998z" transform="translate(-52 -442)" fill="#fff" fill-rule="evenodd" filter="url(#e)"/></svg><svg width="160" height="51" viewBox="-1 -1 160 51" y="238" xmlns="http://www.w3.org/2000/svg"><defs><filter id="f" x="75" y="551" width="158" height="60" filterUnits="userSpaceOnUse"><feOffset result="offset" dx="3.109" dy="2.517" in="SourceAlpha"/><feGaussianBlur result="blur" stdDeviation="4.899"/><feFlood result="flood" flood-color="#292929" flood-opacity=".09"/><feComposite result="composite" operator="in" in2="blur"/><feBlend result="blend" in="SourceGraphic"/></filter></defs><path data-name="Vs carefree proteccion" d="M100.271 575.148l-1.6-.85 1.6-.834-.5-.883-1.533.95.05-2.1h-1.017l.067 2.1-1.55-.95-.5.883 1.583.834-1.583.85.5.867 1.55-.934-.067 2.1h1.017l-.05-2.1 1.533.934zm5.767-.434h-1.483l-1.3 6.5-1.317-6.5h-1.484l2.084 8.634h1.433zM110.9 581a2.508 2.508 0 00-.366-1.383 2.761 2.761 0 00-1.217-.984l-1.1-.55a1.631 1.631 0 01-.717-.566 1.276 1.276 0 01-.15-.634 1.157 1.157 0 01.317-.833 1.018 1.018 0 01.75-.283.966.966 0 01.733.3 1.393 1.393 0 01.317 1.033h1.333a2.5 2.5 0 00-.7-1.9 2.3 2.3 0 00-1.683-.617 2.353 2.353 0 00-1.7.65 2.383 2.383 0 00-.717 1.75 2.2 2.2 0 00.267 1.134 2.8 2.8 0 001.183 1l1.117.566a1.964 1.964 0 01.767.617 1.384 1.384 0 01.216.783 1.237 1.237 0 01-.333.867 1.068 1.068 0 01-.817.317 1.112 1.112 0 01-.766-.3 1.442 1.442 0 01-.367-1.05h-1.333a2.563 2.563 0 00.733 1.9 2.363 2.363 0 001.733.666 2.338 2.338 0 001.767-.683 2.481 2.481 0 00.733-1.8zm8.734-.583H118.2a2.193 2.193 0 01-.383 1.35 1.243 1.243 0 01-1.9-.017c-.417-.567-.5-1.517-.5-4.333s.083-3.767.5-4.334a1.127 1.127 0 01.966-.45 1.11 1.11 0 01.934.417 2.235 2.235 0 01.367 1.366h1.433a3.329 3.329 0 00-.85-2.366 2.87 2.87 0 00-3.917.15c-.817.9-.867 2.25-.867 5.217s.05 4.316.867 5.216a2.578 2.578 0 002.033.85 2.514 2.514 0 001.834-.65 3.32 3.32 0 00.921-2.418zm5.316 2.933v-6.267a2.577 2.577 0 00-.683-1.9 2.313 2.313 0 00-1.684-.6 2.385 2.385 0 00-1.666.634 2.46 2.46 0 00-.667 1.833h1.35a1.314 1.314 0 01.317-1 .883.883 0 01.666-.283A1.02 1.02 0 01123.6 577v1.367h-.883a2.5 2.5 0 00-1.834.583 2.571 2.571 0 00-.766 1.95 2.933 2.933 0 00.55 1.933 1.823 1.823 0 001.483.65 1.545 1.545 0 001.017-.316 2.216 2.216 0 00.5-.584v.767h1.283zm-1.35-2.4a1.174 1.174 0 01-1.083 1.35c-.7 0-1.05-.55-1.05-1.45a1.715 1.715 0 01.4-1.183 1.263 1.263 0 01.966-.317h.767v1.6zm5.833-5.067v-1.3a2.375 2.375 0 00-1.416.434 2.109 2.109 0 00-.6.616v-.917h-1.3v8.634h1.35v-5.883a1.483 1.483 0 011.566-1.584h.4zm5.167 3.467c0-1.85-.034-3.317-.75-4.1a2.152 2.152 0 00-1.7-.667 2.234 2.234 0 00-1.7.667c-.667.683-.75 1.967-.75 3.783s.1 3.1.766 3.784a2.143 2.143 0 001.7.666 2.263 2.263 0 001.717-.633 2.733 2.733 0 00.683-1.9h-1.333a1.571 1.571 0 01-.3.983 1 1 0 01-.767.334.939.939 0 01-.75-.367 4.787 4.787 0 01-.366-2.55h3.55zm-1.35-1.017h-2.2a3.881 3.881 0 01.35-2.183.937.937 0 01.75-.367.97.97 0 01.766.367 3.924 3.924 0 01.338 2.181zm5.266-2.566v-1.051h-1.333v-.783a1.166 1.166 0 011.333-1.3v-1.217a2.851 2.851 0 00-1.933.55 2.331 2.331 0 00-.75 1.917v.833h-.983v1.051h.983v7.583h1.35v-7.583h1.333zm3.884.116v-1.3a2.378 2.378 0 00-1.417.434 2.109 2.109 0 00-.6.616v-.917h-1.3v8.634h1.35v-5.883a1.483 1.483 0 011.567-1.586h.4zm5.166 3.467c0-1.85-.033-3.317-.75-4.1a2.152 2.152 0 00-1.7-.667 2.235 2.235 0 00-1.7.667c-.667.683-.75 1.967-.75 3.783s.1 3.1.767 3.784a2.143 2.143 0 001.7.666 2.26 2.26 0 001.716-.633 2.738 2.738 0 00.684-1.9H146.2a1.564 1.564 0 01-.3.983 1 1 0 01-.766.334.937.937 0 01-.75-.367 4.784 4.784 0 01-.367-2.55h3.55zm-1.35-1.017h-2.2a3.881 3.881 0 01.35-2.183.939.939 0 01.75-.367.974.974 0 01.767.367 3.936 3.936 0 01.337 2.181zm6.883 1.017c0-1.85-.033-3.317-.75-4.1a2.152 2.152 0 00-1.7-.667 2.235 2.235 0 00-1.7.667c-.666.683-.75 1.967-.75 3.783s.1 3.1.767 3.784a2.143 2.143 0 001.7.666 2.264 2.264 0 001.717-.633 2.742 2.742 0 00.683-1.9h-1.333a1.571 1.571 0 01-.3.983 1 1 0 01-.767.334.939.939 0 01-.75-.367 4.784 4.784 0 01-.367-2.55h3.55zm-1.35-1.017h-2.2a3.89 3.89 0 01.35-2.183.939.939 0 01.75-.367.974.974 0 01.767.367 3.926 3.926 0 01.337 2.181zm10.317-3.4c0-2.633-1.017-3.45-2.817-3.45h-2.667v11.867h1.434v-4.933h1.233c1.971-.002 2.821-1.036 2.821-3.486zm-1.433.017c0 1.3-.25 2.183-1.351 2.183h-1.262v-4.367h1.266c1.101-.002 1.351.882 1.351 2.182zm5.733.933v-1.3a2.378 2.378 0 00-1.417.434 2.109 2.109 0 00-.6.616v-.917h-1.3v8.634h1.35v-5.883a1.483 1.483 0 011.567-1.584h.4zm5.166 3.15c0-1.75-.083-2.966-.616-3.65a2.123 2.123 0 00-1.834-.8 2.09 2.09 0 00-1.816.8c-.534.684-.634 1.9-.634 3.65s.1 2.967.634 3.65a2.087 2.087 0 001.816.8 2.121 2.121 0 001.834-.8c.537-.683.62-1.902.62-3.652zm-1.35 0c0 1.55-.016 2.434-.333 2.867a.927.927 0 01-.767.367.9.9 0 01-.75-.367c-.316-.433-.35-1.317-.35-2.867s.034-2.45.35-2.883a.9.9 0 01.75-.367.927.927 0 01.767.367c.321.431.337 1.331.337 2.881zm5.367 4.317v-1.217a1.176 1.176 0 01-1.383-1.3v-5.066h1.334v-1.051h-1.33v-2.366h-1.35v2.366h-.984v1.051h.984v5.116a2.365 2.365 0 00.75 1.934 2.868 2.868 0 001.983.531zm5.233-4c0-1.85-.033-3.317-.75-4.1a2.152 2.152 0 00-1.7-.667 2.235 2.235 0 00-1.7.667c-.667.683-.75 1.967-.75 3.783s.1 3.1.767 3.784a2.143 2.143 0 001.7.666 2.26 2.26 0 001.716-.633 2.738 2.738 0 00.684-1.9h-1.334a1.564 1.564 0 01-.3.983 1 1 0 01-.766.334.937.937 0 01-.75-.367 4.784 4.784 0 01-.367-2.55h3.55zm-1.35-1.017h-2.2a3.881 3.881 0 01.35-2.183.939.939 0 01.75-.367.974.974 0 01.767.367 3.936 3.936 0 01.337 2.181zm6.8 2.617H184.9a1.424 1.424 0 01-.284 1 .941.941 0 01-.733.317.927.927 0 01-.767-.367c-.316-.433-.35-1.317-.35-2.867s.034-2.45.35-2.883a.927.927 0 01.767-.367.914.914 0 01.75.334 1.519 1.519 0 01.267 1h1.333a2.792 2.792 0 00-.683-1.967 2.21 2.21 0 00-1.684-.567 2.128 2.128 0 00-1.816.8c-.534.684-.634 1.9-.634 3.65s.1 2.967.634 3.65a2.125 2.125 0 001.816.8 2.282 2.282 0 001.7-.6 2.72 2.72 0 00.67-1.935zm5.367 0h-1.334a1.429 1.429 0 01-.283 1 .942.942 0 01-.733.317.927.927 0 01-.767-.367c-.317-.433-.35-1.317-.35-2.867s.033-2.45.35-2.883a.927.927 0 01.767-.367.915.915 0 01.75.334 1.518 1.518 0 01.266 1h1.335a2.788 2.788 0 00-.684-1.967 2.206 2.206 0 00-1.683-.567 2.131 2.131 0 00-1.817.8c-.533.684-.633 1.9-.633 3.65s.1 2.967.633 3.65a2.128 2.128 0 001.817.8 2.282 2.282 0 001.7-.6 2.72 2.72 0 00.667-1.935zm2.183 2.4v-8.484h-1.35v8.484h1.35zm.117-10.167v-1.567h-1.584v1.567h1.585zm5.733 5.85c0-1.75-.083-2.966-.617-3.65a2.12 2.12 0 00-1.833-.8 2.09 2.09 0 00-1.817.8c-.533.684-.633 1.9-.633 3.65s.1 2.967.633 3.65a2.088 2.088 0 001.817.8 2.118 2.118 0 001.833-.8c.538-.683.621-1.902.621-3.652zm-1.35 0c0 1.55-.017 2.434-.333 2.867a.927.927 0 01-.767.367.9.9 0 01-.75-.367c-.317-.433-.35-1.317-.35-2.867s.033-2.45.35-2.883a.9.9 0 01.75-.367.927.927 0 01.767.367c.32.431.337 1.331.337 2.881zm.683-7.7h-1.233l-1.133 2.25h1.016zm6.384 12.017V577a2.374 2.374 0 00-.517-1.783 1.81 1.81 0 00-1.467-.634 1.745 1.745 0 00-.933.267 1.82 1.82 0 00-.534.533v-.667h-1.3v8.634h1.35V577a1.039 1.039 0 011.017-1.2A1.05 1.05 0 01204 577v6.35h1.35z" transform="translate(-75 -551)" fill="#fff" fill-rule="evenodd" filter="url(#f)"/></svg></svg>